solid bump
facet normal -9.37616146670049e-017 -1.0 -2.08638116840044e-016
outer loop
vertex 9.86611197431078 -0.980000000000001 0.246442850624458
vertex 4.05 -0.98 1.6029653594091e-031
vertex 10.05 -0.979999999999998 1.6029653594091e-031
endloop
endfacet
facet normal -9.37616146670049e-017 -1.0 -2.08638116840044e-016
outer loop
vertex 4.05 -0.98 1.6029653594091e-031
vertex 9.86611197431078 -0.980000000000001 0.246442850624458
vertex 4.23388802568921 -0.98 0.246442850624458
endloop
endfacet
facet normal -9.37616146670049e-017 -1.0 -2.08638116840044e-016
outer loop
vertex 4.23388802568921 -0.98 0.246442850624458
vertex 9.86611197431078 -0.980000000000001 0.246442850624458
vertex 9.66727565811094 -0.980000000000001 0.48099136154674
endloop
endfacet
facet normal -9.37616146670049e-017 -1.0 -2.08638116840044e-016
outer loop
vertex 4.23388802568921 -0.98 0.246442850624458
vertex 9.66727565811094 -0.980000000000001 0.48099136154674
vertex 4.43272434188905 -0.98 0.48099136154674
endloop
endfacet
facet normal -9.37616146670049e-017 -1.0 -2.08638116840044e-016
outer loop
vertex 4.43272434188905 -0.98 0.48099136154674
vertex 9.66727565811094 -0.980000000000001 0.48099136154674
vertex 9.45425849230922 -0.980000000000003 0.702740254868868
endloop
endfacet
facet normal -9.37616146670049e-017 -1.0 -2.08638116840044e-016
outer loop
vertex 4.43272434188905 -0.98 0.48099136154674
vertex 9.45425849230922 -0.980000000000003 0.702740254868868
vertex 4.64574150769077 -0.98 0.702740254868868
endloop
endfacet
facet normal -9.37616146670049e-017 -1.0 -2.08638116840044e-016
outer loop
vertex 4.64574150769077 -0.98 0.702740254868868
vertex 9.45425849230922 -0.980000000000003 0.702740254868868
vertex 9.22788265109608 -0.980000000000004 0.910833654886337
endloop
endfacet
facet normal -9.37616146670049e-017 -1.0 -2.08638116840044e-016
outer loop
vertex 4.64574150769077 -0.98 0.702740254868868
vertex 9.22788265109608 -0.980000000000004 0.910833654886337
vertex 4.8721173489039 -0.98 0.910833654886337
endloop
endfacet
facet normal -9.37616146670049e-017 -1.0 -2.08638116840044e-016
outer loop
vertex 4.8721173489039 -0.98 0.910833654886337
vertex 9.22788265109608 -0.980000000000004 0.910833654886337
vertex 8.98902186862947 -0.979999999999995 1.10446839147877
endloop
endfacet
facet normal -9.37616146670049e-017 -1.0 -2.08638116840044e-016
outer loop
vertex 4.8721173489039 -0.98 0.910833654886337
vertex 8.98902186862947 -0.979999999999995 1.10446839147877
vertex 5.11097813137051 -0.98 1.10446839147877
endloop
endfacet
facet normal -9.37616146670049e-017 -1.0 -2.08638116840044e-016
outer loop
vertex 5.11097813137051 -0.98 1.10446839147877
vertex 8.98902186862947 -0.979999999999995 1.10446839147877
vertex 8.73859806671656 -0.979999999999999 1.28289710007487
endloop
endfacet
facet normal -9.37616146670049e-017 -1.0 -2.08638116840044e-016
outer loop
vertex 5.11097813137051 -0.98 1.10446839147877
vertex 8.73859806671656 -0.979999999999999 1.28289710007487
vertex 5.36140193328342 -0.98 1.28289710007487
endloop
endfacet
facet normal -9.37616146670049e-017 -1.0 -2.08638116840044e-016
outer loop
vertex 5.36140193328342 -0.98 1.28289710007487
vertex 8.73859806671656 -0.979999999999999 1.28289710007487
vertex 8.47757779650752 -0.979999999999999 1.44543110622675
endloop
endfacet
facet normal -9.37616146670049e-017 -1.0 -2.08638116840044e-016
outer loop
vertex 5.36140193328342 -0.98 1.28289710007487
vertex 8.47757779650752 -0.979999999999999 1.44543110622675
vertex 5.62242220349247 -0.98 1.44543110622675
endloop
endfacet
facet normal -9.37616146670049e-017 -1.0 -2.08638116840044e-016
outer loop
vertex 5.62242220349247 -0.98 1.44543110622675
vertex 8.47757779650752 -0.979999999999999 1.44543110622675
vertex 8.20696850793503 -0.980000000000004 1.59144308366037
endloop
endfacet
facet normal -9.37616146670049e-017 -1.0 -2.08638116840044e-016
outer loop
vertex 5.62242220349247 -0.98 1.44543110622675
vertex 8.20696850793503 -0.980000000000004 1.59144308366037
vertex 5.89303149206496 -0.98 1.59144308366037
endloop
endfacet
facet normal -9.37616146670049e-017 -1.0 -2.08638116840044e-016
outer loop
vertex 5.89303149206496 -0.98 1.59144308366037
vertex 8.20696850793503 -0.980000000000004 1.59144308366037
vertex 7.92781466129847 -0.98 1.7203694755427
endloop
endfacet
facet normal -9.37616146670049e-017 -1.0 -2.08638116840044e-016
outer loop
vertex 5.89303149206496 -0.98 1.59144308366037
vertex 7.92781466129847 -0.98 1.7203694755427
vertex 6.17218533870152 -0.98 1.7203694755427
endloop
endfacet
facet normal -9.37616146670049e-017 -1.0 -2.08638116840044e-016
outer loop
vertex 6.17218533870152 -0.98 1.7203694755427
vertex 7.92781466129847 -0.98 1.7203694755427
vertex 7.64119369600046 -0.979999999999999 1.83171266962039
endloop
endfacet
facet normal -9.37616146670049e-017 -1.0 -2.08638116840044e-016
outer loop
vertex 6.17218533870152 -0.98 1.7203694755427
vertex 7.64119369600046 -0.979999999999999 1.83171266962039
vertex 6.45880630399953 -0.98 1.83171266962039
endloop
endfacet
facet normal -9.37616146670049e-017 -1.0 -2.08638116840044e-016
outer loop
vertex 6.45880630399953 -0.98 1.83171266962039
vertex 7.64119369600046 -0.979999999999999 1.83171266962039
vertex 7.34821187199534 -0.980000000000003 1.92504291883475
endloop
endfacet
facet normal -9.37616146670049e-017 -1.0 -2.08638116840044e-016
outer loop
vertex 6.45880630399953 -0.98 1.83171266962039
vertex 7.34821187199534 -0.980000000000003 1.92504291883475
vertex 6.75178812800465 -0.98 1.92504291883475
endloop
endfacet
facet normal -9.37616146670049e-017 -1.0 -2.08638116840044e-016
outer loop
vertex 6.75178812800465 -0.98 1.92504291883475
vertex 7.34821187199534 -0.980000000000003 1.92504291883475
vertex 7.05 -0.98 2.0
endloop
endfacet
facet normal -1.12289128319212e-016 1.0 3.35888310235692e-016
outer loop
vertex 4.23388802568921 6.99 0.24644285062446
vertex 10.05 6.99 1.93967460259456e-015
vertex 4.05 6.99 1.93967460259456e-015
endloop
endfacet
facet normal -1.12289128319212e-016 1.0 3.35888310235692e-016
outer loop
vertex 10.05 6.99 1.93967460259456e-015
vertex 4.23388802568921 6.99 0.24644285062446
vertex 9.86611197431078 6.99 0.24644285062446
endloop
endfacet
facet normal -1.12289128319212e-016 1.0 3.35888310235692e-016
outer loop
vertex 9.86611197431078 6.99 0.24644285062446
vertex 4.23388802568921 6.99 0.24644285062446
vertex 4.43272434188905 6.99 0.480991361546742
endloop
endfacet
facet normal -1.12289128319212e-016 1.0 3.35888310235692e-016
outer loop
vertex 9.86611197431078 6.99 0.24644285062446
vertex 4.43272434188905 6.99 0.480991361546742
vertex 9.66727565811094 6.99 0.480991361546742
endloop
endfacet
facet normal -1.12289128319212e-016 1.0 3.35888310235692e-016
outer loop
vertex 9.66727565811094 6.99 0.480991361546742
vertex 4.43272434188905 6.99 0.480991361546742
vertex 4.64574150769077 6.99 0.702740254868869
endloop
endfacet
facet normal -1.12289128319212e-016 1.0 3.35888310235692e-016
outer loop
vertex 9.66727565811094 6.99 0.480991361546742
vertex 4.64574150769077 6.99 0.702740254868869
vertex 9.45425849230922 6.99 0.702740254868869
endloop
endfacet
facet normal -1.12289128319212e-016 1.0 3.35888310235692e-016
outer loop
vertex 9.45425849230922 6.99 0.702740254868869
vertex 4.64574150769077 6.99 0.702740254868869
vertex 4.8721173489039 6.99 0.910833654886337
endloop
endfacet
facet normal -1.12289128319212e-016 1.0 3.35888310235692e-016
outer loop
vertex 9.45425849230922 6.99 0.702740254868869
vertex 4.8721173489039 6.99 0.910833654886337
vertex 9.22788265109608 6.99 0.910833654886337
endloop
endfacet
facet normal -1.12289128319212e-016 1.0 3.35888310235692e-016
outer loop
vertex 9.22788265109608 6.99 0.910833654886337
vertex 4.8721173489039 6.99 0.910833654886337
vertex 5.11097813137051 6.99 1.10446839147877
endloop
endfacet
facet normal -1.12289128319212e-016 1.0 3.35888310235692e-016
outer loop
vertex 9.22788265109608 6.99 0.910833654886337
vertex 5.11097813137051 6.99 1.10446839147877
vertex 8.98902186862947 6.99 1.10446839147877
endloop
endfacet
facet normal -1.12289128319212e-016 1.0 3.35888310235692e-016
outer loop
vertex 8.98902186862947 6.99 1.10446839147877
vertex 5.11097813137051 6.99 1.10446839147877
vertex 5.36140193328342 6.99 1.28289710007487
endloop
endfacet
facet normal -1.12289128319212e-016 1.0 3.35888310235692e-016
outer loop
vertex 8.98902186862947 6.99 1.10446839147877
vertex 5.36140193328342 6.99 1.28289710007487
vertex 8.73859806671656 6.99 1.28289710007487
endloop
endfacet
facet normal -1.12289128319212e-016 1.0 3.35888310235692e-016
outer loop
vertex 8.73859806671656 6.99 1.28289710007487
vertex 5.36140193328342 6.99 1.28289710007487
vertex 5.62242220349247 6.99 1.44543110622675
endloop
endfacet
facet normal -1.12289128319212e-016 1.0 3.35888310235692e-016
outer loop
vertex 8.73859806671656 6.99 1.28289710007487
vertex 5.62242220349247 6.99 1.44543110622675
vertex 8.47757779650752 6.99 1.44543110622675
endloop
endfacet
facet normal -1.12289128319212e-016 1.0 3.35888310235692e-016
outer loop
vertex 8.47757779650752 6.99 1.44543110622675
vertex 5.62242220349247 6.99 1.44543110622675
vertex 5.89303149206496 6.99 1.59144308366037
endloop
endfacet
facet normal -1.12289128319212e-016 1.0 3.35888310235692e-016
outer loop
vertex 8.47757779650752 6.99 1.44543110622675
vertex 5.89303149206496 6.99 1.59144308366037
vertex 8.20696850793503 6.99 1.59144308366037
endloop
endfacet
facet normal -1.12289128319212e-016 1.0 3.35888310235692e-016
outer loop
vertex 8.20696850793503 6.99 1.59144308366037
vertex 5.89303149206496 6.99 1.59144308366037
vertex 6.17218533870152 6.99 1.7203694755427
endloop
endfacet
facet normal -1.12289128319212e-016 1.0 3.35888310235692e-016
outer loop
vertex 8.20696850793503 6.99 1.59144308366037
vertex 6.17218533870152 6.99 1.7203694755427
vertex 7.92781466129847 6.99 1.7203694755427
endloop
endfacet
facet normal -1.12289128319212e-016 1.0 3.35888310235692e-016
outer loop
vertex 7.92781466129847 6.99 1.7203694755427
vertex 6.17218533870152 6.99 1.7203694755427
vertex 6.45880630399953 6.99 1.83171266962039
endloop
endfacet
facet normal -1.12289128319212e-016 1.0 3.35888310235692e-016
outer loop
vertex 7.92781466129847 6.99 1.7203694755427
vertex 6.45880630399953 6.99 1.83171266962039
vertex 7.64119369600046 6.99 1.83171266962039
endloop
endfacet
facet normal -1.12289128319212e-016 1.0 3.35888310235692e-016
outer loop
vertex 7.64119369600046 6.99 1.83171266962039
vertex 6.45880630399953 6.99 1.83171266962039
vertex 6.75178812800465 6.99 1.92504291883475
endloop
endfacet
facet normal -1.12289128319212e-016 1.0 3.35888310235692e-016
outer loop
vertex 7.64119369600046 6.99 1.83171266962039
vertex 6.75178812800465 6.99 1.92504291883475
vertex 7.34821187199534 6.99 1.92504291883475
endloop
endfacet
facet normal -1.12289128319212e-016 1.0 3.35888310235692e-016
outer loop
vertex 7.34821187199534 6.99 1.92504291883475
vertex 6.75178812800465 6.99 1.92504291883475
vertex 7.05 6.99 2.0
endloop
endfacet
facet normal -7.9335152249957e-032 2.43371970212617e-016 -1.0
outer loop
vertex 10.05 6.99 1.93967460259456e-015
vertex 4.05 -0.98 1.6029653594091e-031
vertex 4.05 6.99 1.93967460259456e-015
endloop
endfacet
facet normal -7.9335152249957e-032 2.43371970212617e-016 -1.0
outer loop
vertex 4.05 -0.98 1.6029653594091e-031
vertex 10.05 6.99 1.93967460259456e-015
vertex 10.05 -0.979999999999998 1.6029653594091e-031
endloop
endfacet
facet normal 0.801471380229521 -1.19491062353622e-016 0.5980331317519
outer loop
vertex 10.05 -0.979999999999998 1.6029653594091e-031
vertex 9.86611197431078 6.99 0.24644285062446
vertex 9.86611197431078 -0.980000000000001 0.246442850624458
endloop
endfacet
facet normal 0.801471380229521 -1.19491062353622e-016 0.5980331317519
outer loop
vertex 9.86611197431078 6.99 0.24644285062446
vertex 10.05 -0.979999999999998 1.6029653594091e-031
vertex 10.05 6.99 1.93967460259456e-015
endloop
endfacet
facet normal 0.762789094117889 -1.12881218704116e-016 0.646647352035722
outer loop
vertex 9.86611197431078 -0.980000000000001 0.246442850624458
vertex 9.66727565811094 6.99 0.480991361546742
vertex 9.66727565811094 -0.980000000000001 0.48099136154674
endloop
endfacet
facet normal 0.762789094117889 -1.12881218704116e-016 0.646647352035722
outer loop
vertex 9.66727565811094 6.99 0.480991361546742
vertex 9.86611197431078 -0.980000000000001 0.246442850624458
vertex 9.86611197431078 6.99 0.24644285062446
endloop
endfacet
facet normal 0.721162700175381 -1.33783627982834e-016 0.692765732319197
outer loop
vertex 9.66727565811094 -0.980000000000001 0.48099136154674
vertex 9.45425849230922 6.99 0.702740254868869
vertex 9.45425849230922 -0.980000000000003 0.702740254868868
endloop
endfacet
facet normal 0.721162700175381 -1.33783627982834e-016 0.692765732319197
outer loop
vertex 9.45425849230922 6.99 0.702740254868869
vertex 9.66727565811094 -0.980000000000001 0.48099136154674
vertex 9.66727565811094 6.99 0.480991361546742
endloop
endfacet
facet normal 0.676752862199286 -7.13385673984465e-017 0.736210271257522
outer loop
vertex 9.45425849230922 -0.980000000000003 0.702740254868868
vertex 9.22788265109608 6.99 0.910833654886337
vertex 9.22788265109608 -0.980000000000004 0.910833654886337
endloop
endfacet
facet normal 0.676752862199286 -7.13385673984465e-017 0.736210271257522
outer loop
vertex 9.22788265109608 6.99 0.910833654886337
vertex 9.45425849230922 -0.980000000000003 0.702740254868868
vertex 9.45425849230922 6.99 0.702740254868869
endloop
endfacet
facet normal 0.629730987139117 -1.16743888055312e-018 0.776813287628883
outer loop
vertex 9.22788265109608 -0.980000000000004 0.910833654886337
vertex 8.98902186862947 6.99 1.10446839147877
vertex 8.98902186862947 -0.979999999999995 1.10446839147877
endloop
endfacet
facet normal 0.629730987139117 -1.16743888055312e-018 0.776813287628883
outer loop
vertex 8.98902186862947 6.99 1.10446839147877
vertex 9.22788265109608 -0.980000000000004 0.910833654886337
vertex 9.22788265109608 6.99 0.910833654886337
endloop
endfacet
facet normal 0.580278563523838 6.93452805176217e-019 0.814418067527183
outer loop
vertex 8.98902186862947 -0.979999999999995 1.10446839147877
vertex 8.73859806671656 6.99 1.28289710007487
vertex 8.73859806671656 -0.979999999999999 1.28289710007487
endloop
endfacet
facet normal 0.580278563523838 6.93452805176217e-019 0.814418067527183
outer loop
vertex 8.73859806671656 6.99 1.28289710007487
vertex 8.98902186862947 -0.979999999999995 1.10446839147877
vertex 8.98902186862947 6.99 1.10446839147877
endloop
endfacet
facet normal 0.528586460977474 2.49579405655583e-019 0.84887946922476
outer loop
vertex 8.73859806671656 -0.979999999999999 1.28289710007487
vertex 8.47757779650752 6.99 1.44543110622675
vertex 8.47757779650752 -0.979999999999999 1.44543110622675
endloop
endfacet
facet normal 0.528586460977474 2.49579405655583e-019 0.84887946922476
outer loop
vertex 8.47757779650752 6.99 1.44543110622675
vertex 8.73859806671656 -0.979999999999999 1.28289710007487
vertex 8.73859806671656 6.99 1.28289710007487
endloop
endfacet
facet normal 0.474854193526988 -7.23746693387124e-019 0.880064483370301
outer loop
vertex 8.47757779650752 -0.979999999999999 1.44543110622675
vertex 8.20696850793503 6.99 1.59144308366037
vertex 8.20696850793503 -0.980000000000004 1.59144308366037
endloop
endfacet
facet normal 0.474854193526988 -7.23746693387124e-019 0.880064483370301
outer loop
vertex 8.20696850793503 6.99 1.59144308366037
vertex 8.47757779650752 -0.979999999999999 1.44543110622675
vertex 8.47757779650752 6.99 1.44543110622675
endloop
endfacet
facet normal 0.419289149545671 -5.1993302391359e-019 0.907852746359931
outer loop
vertex 8.20696850793503 -0.980000000000004 1.59144308366037
vertex 7.92781466129847 6.99 1.7203694755427
vertex 7.92781466129847 -0.98 1.7203694755427
endloop
endfacet
facet normal 0.419289149545671 -5.1993302391359e-019 0.907852746359931
outer loop
vertex 7.92781466129847 6.99 1.7203694755427
vertex 8.20696850793503 -0.980000000000004 1.59144308366037
vertex 8.20696850793503 6.99 1.59144308366037
endloop
endfacet
facet normal 0.362105791304111 5.79852361769336e-020 0.932137004900044
outer loop
vertex 7.92781466129847 -0.98 1.7203694755427
vertex 7.64119369600046 6.99 1.83171266962039
vertex 7.64119369600046 -0.979999999999999 1.83171266962039
endloop
endfacet
facet normal 0.362105791304111 5.79852361769336e-020 0.932137004900044
outer loop
vertex 7.64119369600046 6.99 1.83171266962039
vertex 7.92781466129847 -0.98 1.7203694755427
vertex 7.92781466129847 6.99 1.7203694755427
endloop
endfacet
facet normal 0.303524827218404 7.94022573488688e-019 0.952823529968713
outer loop
vertex 7.64119369600046 -0.979999999999999 1.83171266962039
vertex 7.34821187199534 6.99 1.92504291883475
vertex 7.34821187199534 -0.980000000000003 1.92504291883475
endloop
endfacet
facet normal 0.303524827218404 7.94022573488688e-019 0.952823529968713
outer loop
vertex 7.34821187199534 6.99 1.92504291883475
vertex 7.64119369600046 -0.979999999999999 1.83171266962039
vertex 7.64119369600046 6.99 1.83171266962039
endloop
endfacet
facet normal 0.243772359990416 1.82102965584617e-020 0.969832478577978
outer loop
vertex 7.34821187199534 -0.980000000000003 1.92504291883475
vertex 7.05 6.99 2.0
vertex 7.05 -0.98 2.0
endloop
endfacet
facet normal 0.243772359990416 1.82102965584617e-020 0.969832478577978
outer loop
vertex 7.05 6.99 2.0
vertex 7.34821187199534 -0.980000000000003 1.92504291883475
vertex 7.34821187199534 6.99 1.92504291883475
endloop
endfacet
facet normal -0.243772359990405 -0.0 0.96983247857798
outer loop
vertex 7.05 -0.98 2.0
vertex 6.75178812800465 6.99 1.92504291883475
vertex 6.75178812800465 -0.98 1.92504291883475
endloop
endfacet
facet normal -0.243772359990405 -0.0 0.96983247857798
outer loop
vertex 6.75178812800465 6.99 1.92504291883475
vertex 7.05 -0.98 2.0
vertex 7.05 6.99 2.0
endloop
endfacet
facet normal -0.303524827218405 -0.0 0.952823529968712
outer loop
vertex 6.75178812800465 -0.98 1.92504291883475
vertex 6.45880630399953 6.99 1.83171266962039
vertex 6.45880630399953 -0.98 1.83171266962039
endloop
endfacet
facet normal -0.303524827218405 -0.0 0.952823529968712
outer loop
vertex 6.45880630399953 6.99 1.83171266962039
vertex 6.75178812800465 -0.98 1.92504291883475
vertex 6.75178812800465 6.99 1.92504291883475
endloop
endfacet
facet normal -0.362105791304108 -0.0 0.932137004900045
outer loop
vertex 6.45880630399953 -0.98 1.83171266962039
vertex 6.17218533870152 6.99 1.7203694755427
vertex 6.17218533870152 -0.98 1.7203694755427
endloop
endfacet
facet normal -0.362105791304108 -0.0 0.932137004900045
outer loop
vertex 6.17218533870152 6.99 1.7203694755427
vertex 6.45880630399953 -0.98 1.83171266962039
vertex 6.45880630399953 6.99 1.83171266962039
endloop
endfacet
facet normal -0.419289149545673 -0.0 0.90785274635993
outer loop
vertex 6.17218533870152 -0.98 1.7203694755427
vertex 5.89303149206496 6.99 1.59144308366037
vertex 5.89303149206496 -0.98 1.59144308366037
endloop
endfacet
facet normal -0.419289149545673 -0.0 0.90785274635993
outer loop
vertex 5.89303149206496 6.99 1.59144308366037
vertex 6.17218533870152 -0.98 1.7203694755427
vertex 6.17218533870152 6.99 1.7203694755427
endloop
endfacet
facet normal -0.474854193526988 -0.0 0.880064483370301
outer loop
vertex 5.89303149206496 -0.98 1.59144308366037
vertex 5.62242220349247 6.99 1.44543110622675
vertex 5.62242220349247 -0.98 1.44543110622675
endloop
endfacet
facet normal -0.474854193526988 -0.0 0.880064483370301
outer loop
vertex 5.62242220349247 6.99 1.44543110622675
vertex 5.89303149206496 -0.98 1.59144308366037
vertex 5.89303149206496 6.99 1.59144308366037
endloop
endfacet
facet normal -0.528586460977468 -0.0 0.848879469224763
outer loop
vertex 5.62242220349247 -0.98 1.44543110622675
vertex 5.36140193328342 6.99 1.28289710007487
vertex 5.36140193328342 -0.98 1.28289710007487
endloop
endfacet
facet normal -0.528586460977468 -0.0 0.848879469224763
outer loop
vertex 5.36140193328342 6.99 1.28289710007487
vertex 5.62242220349247 -0.98 1.44543110622675
vertex 5.62242220349247 6.99 1.44543110622675
endloop
endfacet
facet normal -0.580278563523835 -0.0 0.814418067527185
outer loop
vertex 5.36140193328342 -0.98 1.28289710007487
vertex 5.11097813137051 6.99 1.10446839147877
vertex 5.11097813137051 -0.98 1.10446839147877
endloop
endfacet
facet normal -0.580278563523835 -0.0 0.814418067527185
outer loop
vertex 5.11097813137051 6.99 1.10446839147877
vertex 5.36140193328342 -0.98 1.28289710007487
vertex 5.36140193328342 6.99 1.28289710007487
endloop
endfacet
facet normal -0.629730987139126 -0.0 0.776813287628876
outer loop
vertex 5.11097813137051 -0.98 1.10446839147877
vertex 4.8721173489039 6.99 0.910833654886337
vertex 4.8721173489039 -0.98 0.910833654886337
endloop
endfacet
facet normal -0.629730987139126 -0.0 0.776813287628876
outer loop
vertex 4.8721173489039 6.99 0.910833654886337
vertex 5.11097813137051 -0.98 1.10446839147877
vertex 5.11097813137051 6.99 1.10446839147877
endloop
endfacet
facet normal -0.676752862199291 -7.14072215741522e-017 0.736210271257518
outer loop
vertex 4.8721173489039 -0.98 0.910833654886337
vertex 4.64574150769077 6.99 0.702740254868869
vertex 4.64574150769077 -0.98 0.702740254868868
endloop
endfacet
facet normal -0.676752862199291 -7.14072215741522e-017 0.736210271257518
outer loop
vertex 4.64574150769077 6.99 0.702740254868869
vertex 4.8721173489039 -0.98 0.910833654886337
vertex 4.8721173489039 6.99 0.910833654886337
endloop
endfacet
facet normal -0.721162700175385 -1.33586891819761e-016 0.692765732319193
outer loop
vertex 4.64574150769077 6.99 0.702740254868869
vertex 4.43272434188905 -0.98 0.48099136154674
vertex 4.64574150769077 -0.98 0.702740254868868
endloop
endfacet
facet normal -0.721162700175385 -1.33586891819761e-016 0.692765732319193
outer loop
vertex 4.43272434188905 -0.98 0.48099136154674
vertex 4.64574150769077 6.99 0.702740254868869
vertex 4.43272434188905 6.99 0.480991361546742
endloop
endfacet
facet normal -0.762789094117885 -1.13493781981524e-016 0.646647352035726
outer loop
vertex 4.43272434188905 6.99 0.480991361546742
vertex 4.23388802568921 -0.98 0.246442850624458
vertex 4.43272434188905 -0.98 0.48099136154674
endloop
endfacet
facet normal -0.762789094117885 -1.13493781981524e-016 0.646647352035726
outer loop
vertex 4.23388802568921 -0.98 0.246442850624458
vertex 4.43272434188905 6.99 0.480991361546742
vertex 4.23388802568921 6.99 0.24644285062446
endloop
endfacet
facet normal -0.801471380229518 -1.20153235566378e-016 0.598033131751905
outer loop
vertex 4.23388802568921 6.99 0.24644285062446
vertex 4.05 -0.98 1.6029653594091e-031
vertex 4.23388802568921 -0.98 0.246442850624458
endloop
endfacet
facet normal -0.801471380229518 -1.20153235566378e-016 0.598033131751905
outer loop
vertex 4.05 -0.98 1.6029653594091e-031
vertex 4.23388802568921 6.99 0.24644285062446
vertex 4.05 6.99 1.93967460259456e-015
endloop
endfacet
endsolid bump
