solid bump
facet normal 9.37616146670049e-017 1.0 2.08638116840044e-016
outer loop
vertex 4.23388802568921 -0.98 0.246442850624458
vertex 10.05 -0.979999999999998 1.6029653594091e-031
vertex 4.05 -0.98 1.6029653594091e-031
endloop
endfacet
facet normal 9.37616146670049e-017 1.0 2.08638116840044e-016
outer loop
vertex 10.05 -0.979999999999998 1.6029653594091e-031
vertex 4.23388802568921 -0.98 0.246442850624458
vertex 9.86611197431078 -0.980000000000001 0.246442850624458
endloop
endfacet
facet normal 9.37616146670049e-017 1.0 2.08638116840044e-016
outer loop
vertex 9.86611197431078 -0.980000000000001 0.246442850624458
vertex 4.23388802568921 -0.98 0.246442850624458
vertex 4.43272434188905 -0.98 0.48099136154674
endloop
endfacet
facet normal 9.37616146670049e-017 1.0 2.08638116840044e-016
outer loop
vertex 9.86611197431078 -0.980000000000001 0.246442850624458
vertex 4.43272434188905 -0.98 0.48099136154674
vertex 9.66727565811094 -0.980000000000001 0.48099136154674
endloop
endfacet
facet normal 9.37616146670049e-017 1.0 2.08638116840044e-016
outer loop
vertex 9.66727565811094 -0.980000000000001 0.48099136154674
vertex 4.43272434188905 -0.98 0.48099136154674
vertex 4.64574150769077 -0.98 0.702740254868868
endloop
endfacet
facet normal 9.37616146670049e-017 1.0 2.08638116840044e-016
outer loop
vertex 9.66727565811094 -0.980000000000001 0.48099136154674
vertex 4.64574150769077 -0.98 0.702740254868868
vertex 9.45425849230922 -0.980000000000003 0.702740254868868
endloop
endfacet
facet normal 9.37616146670049e-017 1.0 2.08638116840044e-016
outer loop
vertex 9.45425849230922 -0.980000000000003 0.702740254868868
vertex 4.64574150769077 -0.98 0.702740254868868
vertex 4.8721173489039 -0.98 0.910833654886337
endloop
endfacet
facet normal 9.37616146670049e-017 1.0 2.08638116840044e-016
outer loop
vertex 9.45425849230922 -0.980000000000003 0.702740254868868
vertex 4.8721173489039 -0.98 0.910833654886337
vertex 9.22788265109608 -0.980000000000004 0.910833654886337
endloop
endfacet
facet normal 9.37616146670049e-017 1.0 2.08638116840044e-016
outer loop
vertex 9.22788265109608 -0.980000000000004 0.910833654886337
vertex 4.8721173489039 -0.98 0.910833654886337
vertex 5.11097813137051 -0.98 1.10446839147877
endloop
endfacet
facet normal 9.37616146670049e-017 1.0 2.08638116840044e-016
outer loop
vertex 9.22788265109608 -0.980000000000004 0.910833654886337
vertex 5.11097813137051 -0.98 1.10446839147877
vertex 8.98902186862947 -0.979999999999995 1.10446839147877
endloop
endfacet
facet normal 9.37616146670049e-017 1.0 2.08638116840044e-016
outer loop
vertex 8.98902186862947 -0.979999999999995 1.10446839147877
vertex 5.11097813137051 -0.98 1.10446839147877
vertex 5.36140193328342 -0.98 1.28289710007487
endloop
endfacet
facet normal 9.37616146670049e-017 1.0 2.08638116840044e-016
outer loop
vertex 8.98902186862947 -0.979999999999995 1.10446839147877
vertex 5.36140193328342 -0.98 1.28289710007487
vertex 8.73859806671656 -0.979999999999999 1.28289710007487
endloop
endfacet
facet normal 9.37616146670049e-017 1.0 2.08638116840044e-016
outer loop
vertex 8.73859806671656 -0.979999999999999 1.28289710007487
vertex 5.36140193328342 -0.98 1.28289710007487
vertex 5.62242220349247 -0.98 1.44543110622675
endloop
endfacet
facet normal 9.37616146670049e-017 1.0 2.08638116840044e-016
outer loop
vertex 8.73859806671656 -0.979999999999999 1.28289710007487
vertex 5.62242220349247 -0.98 1.44543110622675
vertex 8.47757779650752 -0.979999999999999 1.44543110622675
endloop
endfacet
facet normal 9.37616146670049e-017 1.0 2.08638116840044e-016
outer loop
vertex 8.47757779650752 -0.979999999999999 1.44543110622675
vertex 5.62242220349247 -0.98 1.44543110622675
vertex 5.89303149206496 -0.98 1.59144308366037
endloop
endfacet
facet normal 9.37616146670049e-017 1.0 2.08638116840044e-016
outer loop
vertex 8.47757779650752 -0.979999999999999 1.44543110622675
vertex 5.89303149206496 -0.98 1.59144308366037
vertex 8.20696850793503 -0.980000000000004 1.59144308366037
endloop
endfacet
facet normal 9.37616146670049e-017 1.0 2.08638116840044e-016
outer loop
vertex 8.20696850793503 -0.980000000000004 1.59144308366037
vertex 5.89303149206496 -0.98 1.59144308366037
vertex 6.17218533870152 -0.98 1.7203694755427
endloop
endfacet
facet normal 9.37616146670049e-017 1.0 2.08638116840044e-016
outer loop
vertex 8.20696850793503 -0.980000000000004 1.59144308366037
vertex 6.17218533870152 -0.98 1.7203694755427
vertex 7.92781466129847 -0.98 1.7203694755427
endloop
endfacet
facet normal 9.37616146670049e-017 1.0 2.08638116840044e-016
outer loop
vertex 7.92781466129847 -0.98 1.7203694755427
vertex 6.17218533870152 -0.98 1.7203694755427
vertex 6.45880630399953 -0.98 1.83171266962039
endloop
endfacet
facet normal 9.37616146670049e-017 1.0 2.08638116840044e-016
outer loop
vertex 7.92781466129847 -0.98 1.7203694755427
vertex 6.45880630399953 -0.98 1.83171266962039
vertex 7.64119369600046 -0.979999999999999 1.83171266962039
endloop
endfacet
facet normal 9.37616146670049e-017 1.0 2.08638116840044e-016
outer loop
vertex 7.64119369600046 -0.979999999999999 1.83171266962039
vertex 6.45880630399953 -0.98 1.83171266962039
vertex 6.75178812800465 -0.98 1.92504291883475
endloop
endfacet
facet normal 9.37616146670049e-017 1.0 2.08638116840044e-016
outer loop
vertex 7.64119369600046 -0.979999999999999 1.83171266962039
vertex 6.75178812800465 -0.98 1.92504291883475
vertex 7.34821187199534 -0.980000000000003 1.92504291883475
endloop
endfacet
facet normal 9.37616146670049e-017 1.0 2.08638116840044e-016
outer loop
vertex 7.34821187199534 -0.980000000000003 1.92504291883475
vertex 6.75178812800465 -0.98 1.92504291883475
vertex 7.05 -0.98 2.0
endloop
endfacet
facet normal 1.12289128319212e-016 -1.0 -3.35888310235692e-016
outer loop
vertex 9.86611197431078 6.99 0.24644285062446
vertex 4.05 6.99 1.93967460259456e-015
vertex 10.05 6.99 1.93967460259456e-015
endloop
endfacet
facet normal 1.12289128319212e-016 -1.0 -3.35888310235692e-016
outer loop
vertex 4.05 6.99 1.93967460259456e-015
vertex 9.86611197431078 6.99 0.24644285062446
vertex 4.23388802568921 6.99 0.24644285062446
endloop
endfacet
facet normal 1.12289128319212e-016 -1.0 -3.35888310235692e-016
outer loop
vertex 4.23388802568921 6.99 0.24644285062446
vertex 9.86611197431078 6.99 0.24644285062446
vertex 9.66727565811094 6.99 0.480991361546742
endloop
endfacet
facet normal 1.12289128319212e-016 -1.0 -3.35888310235692e-016
outer loop
vertex 4.23388802568921 6.99 0.24644285062446
vertex 9.66727565811094 6.99 0.480991361546742
vertex 4.43272434188905 6.99 0.480991361546742
endloop
endfacet
facet normal 1.12289128319212e-016 -1.0 -3.35888310235692e-016
outer loop
vertex 4.43272434188905 6.99 0.480991361546742
vertex 9.66727565811094 6.99 0.480991361546742
vertex 9.45425849230922 6.99 0.702740254868869
endloop
endfacet
facet normal 1.12289128319212e-016 -1.0 -3.35888310235692e-016
outer loop
vertex 4.43272434188905 6.99 0.480991361546742
vertex 9.45425849230922 6.99 0.702740254868869
vertex 4.64574150769077 6.99 0.702740254868869
endloop
endfacet
facet normal 1.12289128319212e-016 -1.0 -3.35888310235692e-016
outer loop
vertex 4.64574150769077 6.99 0.702740254868869
vertex 9.45425849230922 6.99 0.702740254868869
vertex 9.22788265109608 6.99 0.910833654886337
endloop
endfacet
facet normal 1.12289128319212e-016 -1.0 -3.35888310235692e-016
outer loop
vertex 4.64574150769077 6.99 0.702740254868869
vertex 9.22788265109608 6.99 0.910833654886337
vertex 4.8721173489039 6.99 0.910833654886337
endloop
endfacet
facet normal 1.12289128319212e-016 -1.0 -3.35888310235692e-016
outer loop
vertex 4.8721173489039 6.99 0.910833654886337
vertex 9.22788265109608 6.99 0.910833654886337
vertex 8.98902186862947 6.99 1.10446839147877
endloop
endfacet
facet normal 1.12289128319212e-016 -1.0 -3.35888310235692e-016
outer loop
vertex 4.8721173489039 6.99 0.910833654886337
vertex 8.98902186862947 6.99 1.10446839147877
vertex 5.11097813137051 6.99 1.10446839147877
endloop
endfacet
facet normal 1.12289128319212e-016 -1.0 -3.35888310235692e-016
outer loop
vertex 5.11097813137051 6.99 1.10446839147877
vertex 8.98902186862947 6.99 1.10446839147877
vertex 8.73859806671656 6.99 1.28289710007487
endloop
endfacet
facet normal 1.12289128319212e-016 -1.0 -3.35888310235692e-016
outer loop
vertex 5.11097813137051 6.99 1.10446839147877
vertex 8.73859806671656 6.99 1.28289710007487
vertex 5.36140193328342 6.99 1.28289710007487
endloop
endfacet
facet normal 1.12289128319212e-016 -1.0 -3.35888310235692e-016
outer loop
vertex 5.36140193328342 6.99 1.28289710007487
vertex 8.73859806671656 6.99 1.28289710007487
vertex 8.47757779650752 6.99 1.44543110622675
endloop
endfacet
facet normal 1.12289128319212e-016 -1.0 -3.35888310235692e-016
outer loop
vertex 5.36140193328342 6.99 1.28289710007487
vertex 8.47757779650752 6.99 1.44543110622675
vertex 5.62242220349247 6.99 1.44543110622675
endloop
endfacet
facet normal 1.12289128319212e-016 -1.0 -3.35888310235692e-016
outer loop
vertex 5.62242220349247 6.99 1.44543110622675
vertex 8.47757779650752 6.99 1.44543110622675
vertex 8.20696850793503 6.99 1.59144308366037
endloop
endfacet
facet normal 1.12289128319212e-016 -1.0 -3.35888310235692e-016
outer loop
vertex 5.62242220349247 6.99 1.44543110622675
vertex 8.20696850793503 6.99 1.59144308366037
vertex 5.89303149206496 6.99 1.59144308366037
endloop
endfacet
facet normal 1.12289128319212e-016 -1.0 -3.35888310235692e-016
outer loop
vertex 5.89303149206496 6.99 1.59144308366037
vertex 8.20696850793503 6.99 1.59144308366037
vertex 7.92781466129847 6.99 1.7203694755427
endloop
endfacet
facet normal 1.12289128319212e-016 -1.0 -3.35888310235692e-016
outer loop
vertex 5.89303149206496 6.99 1.59144308366037
vertex 7.92781466129847 6.99 1.7203694755427
vertex 6.17218533870152 6.99 1.7203694755427
endloop
endfacet
facet normal 1.12289128319212e-016 -1.0 -3.35888310235692e-016
outer loop
vertex 6.17218533870152 6.99 1.7203694755427
vertex 7.92781466129847 6.99 1.7203694755427
vertex 7.64119369600046 6.99 1.83171266962039
endloop
endfacet
facet normal 1.12289128319212e-016 -1.0 -3.35888310235692e-016
outer loop
vertex 6.17218533870152 6.99 1.7203694755427
vertex 7.64119369600046 6.99 1.83171266962039
vertex 6.45880630399953 6.99 1.83171266962039
endloop
endfacet
facet normal 1.12289128319212e-016 -1.0 -3.35888310235692e-016
outer loop
vertex 6.45880630399953 6.99 1.83171266962039
vertex 7.64119369600046 6.99 1.83171266962039
vertex 7.34821187199534 6.99 1.92504291883475
endloop
endfacet
facet normal 1.12289128319212e-016 -1.0 -3.35888310235692e-016
outer loop
vertex 6.45880630399953 6.99 1.83171266962039
vertex 7.34821187199534 6.99 1.92504291883475
vertex 6.75178812800465 6.99 1.92504291883475
endloop
endfacet
facet normal 1.12289128319212e-016 -1.0 -3.35888310235692e-016
outer loop
vertex 6.75178812800465 6.99 1.92504291883475
vertex 7.34821187199534 6.99 1.92504291883475
vertex 7.05 6.99 2.0
endloop
endfacet
facet normal 7.9335152249957e-032 -2.43371970212617e-016 1.0
outer loop
vertex 10.05 -0.979999999999998 1.6029653594091e-031
vertex 4.05 6.99 1.93967460259456e-015
vertex 4.05 -0.98 1.6029653594091e-031
endloop
endfacet
facet normal 7.9335152249957e-032 -2.43371970212617e-016 1.0
outer loop
vertex 4.05 6.99 1.93967460259456e-015
vertex 10.05 -0.979999999999998 1.6029653594091e-031
vertex 10.05 6.99 1.93967460259456e-015
endloop
endfacet
facet normal -0.782507855235235 1.16242236026879e-016 -0.622640712205003
outer loop
vertex 9.86611197431078 6.99 0.24644285062446
vertex 10.05 -0.979999999999998 1.6029653594091e-031
vertex 9.86611197431078 -0.980000000000001 0.246442850624458
endloop
endfacet
facet normal -0.801471380229521 1.19491062353622e-016 -0.5980331317519
outer loop
vertex 10.05 -0.979999999999998 1.6029653594091e-031
vertex 9.86611197431078 6.99 0.24644285062446
vertex 10.05 6.99 1.93967460259456e-015
endloop
endfacet
facet normal -0.742334128406169 1.2339196911784e-016 -0.670029881276539
outer loop
vertex 9.66727565811094 6.99 0.480991361546742
vertex 9.86611197431078 -0.980000000000001 0.246442850624458
vertex 9.66727565811094 -0.980000000000001 0.48099136154674
endloop
endfacet
facet normal -0.782507855235235 1.16242236026879e-016 -0.622640712205003
outer loop
vertex 9.86611197431078 -0.980000000000001 0.246442850624458
vertex 9.66727565811094 6.99 0.480991361546742
vertex 9.86611197431078 6.99 0.24644285062446
endloop
endfacet
facet normal -0.69929524299341 1.0261061492071e-016 -0.7148329616958
outer loop
vertex 9.45425849230922 6.99 0.702740254868869
vertex 9.66727565811094 -0.980000000000001 0.48099136154674
vertex 9.45425849230922 -0.980000000000003 0.702740254868868
endloop
endfacet
facet normal -0.742334128406169 1.2339196911784e-016 -0.670029881276539
outer loop
vertex 9.66727565811094 -0.980000000000001 0.48099136154674
vertex 9.45425849230922 6.99 0.702740254868869
vertex 9.66727565811094 6.99 0.480991361546742
endloop
endfacet
facet normal -0.69929524299341 1.0261061492071e-016 -0.7148329616958
outer loop
vertex 9.45425849230922 6.99 0.702740254868869
vertex 9.22788265109608 -0.980000000000004 0.910833654886337
vertex 9.22788265109608 6.99 0.910833654886337
endloop
endfacet
facet normal -0.65355731453342 3.6270506348198e-017 -0.75687702873047
outer loop
vertex 9.22788265109608 -0.980000000000004 0.910833654886337
vertex 9.45425849230922 6.99 0.702740254868869
vertex 9.45425849230922 -0.980000000000003 0.702740254868868
endloop
endfacet
facet normal -0.65355731453342 3.62705063481973e-017 -0.75687702873047
outer loop
vertex 9.22788265109608 6.99 0.910833654886337
vertex 8.98902186862947 -0.979999999999995 1.10446839147877
vertex 8.98902186862947 6.99 1.10446839147877
endloop
endfacet
facet normal -0.605296875955668 2.37107459618759e-019 -0.795999806506452
outer loop
vertex 8.98902186862947 -0.979999999999995 1.10446839147877
vertex 9.22788265109608 6.99 0.910833654886337
vertex 9.22788265109608 -0.980000000000004 0.910833654886337
endloop
endfacet
facet normal -0.605296875955668 2.3710745961875e-019 -0.795999806506452
outer loop
vertex 8.98902186862947 6.99 1.10446839147877
vertex 8.73859806671656 -0.979999999999999 1.28289710007487
vertex 8.73859806671656 6.99 1.28289710007487
endloop
endfacet
facet normal -0.554700196225235 -4.71743756757382e-019 -0.83205029433784
outer loop
vertex 8.73859806671656 -0.979999999999999 1.28289710007487
vertex 8.98902186862947 6.99 1.10446839147877
vertex 8.98902186862947 -0.979999999999995 1.10446839147877
endloop
endfacet
facet normal -0.554700196225235 -4.71743756757384e-019 -0.83205029433784
outer loop
vertex 8.73859806671656 6.99 1.28289710007487
vertex 8.47757779650752 -0.979999999999999 1.44543110622675
vertex 8.47757779650752 6.99 1.44543110622675
endloop
endfacet
facet normal -0.501962561407621 2.37198109541388e-019 -0.864889349538483
outer loop
vertex 8.47757779650752 -0.979999999999999 1.44543110622675
vertex 8.73859806671656 6.99 1.28289710007487
vertex 8.73859806671656 -0.979999999999999 1.28289710007487
endloop
endfacet
facet normal -0.501962561407622 2.37198109541383e-019 -0.864889349538483
outer loop
vertex 8.47757779650752 6.99 1.44543110622675
vertex 8.20696850793503 -0.980000000000004 1.59144308366037
vertex 8.20696850793503 6.99 1.59144308366037
endloop
endfacet
facet normal -0.447287520930646 6.22140087372947e-019 -0.894390224465651
outer loop
vertex 8.20696850793503 -0.980000000000004 1.59144308366037
vertex 8.47757779650752 6.99 1.44543110622675
vertex 8.47757779650752 -0.979999999999999 1.44543110622675
endloop
endfacet
facet normal -0.447287520930646 6.22140087372947e-019 -0.894390224465651
outer loop
vertex 8.20696850793503 6.99 1.59144308366037
vertex 7.92781466129847 -0.98 1.7203694755427
vertex 7.92781466129847 6.99 1.7203694755427
endloop
endfacet
facet normal -0.390886101952499 2.31085409713033e-019 -0.920439055723072
outer loop
vertex 7.92781466129847 -0.98 1.7203694755427
vertex 8.20696850793503 6.99 1.59144308366037
vertex 8.20696850793503 -0.980000000000004 1.59144308366037
endloop
endfacet
facet normal -0.390886101952499 2.3108540971303e-019 -0.920439055723072
outer loop
vertex 7.92781466129847 6.99 1.7203694755427
vertex 7.64119369600046 -0.979999999999999 1.83171266962039
vertex 7.64119369600046 6.99 1.83171266962039
endloop
endfacet
facet normal -0.33297599486828 -4.26209582558977e-019 -0.942935303635132
outer loop
vertex 7.64119369600046 -0.979999999999999 1.83171266962039
vertex 7.92781466129847 6.99 1.7203694755427
vertex 7.92781466129847 -0.98 1.7203694755427
endloop
endfacet
facet normal -0.33297599486828 -4.26209582558975e-019 -0.942935303635132
outer loop
vertex 7.64119369600046 6.99 1.83171266962039
vertex 7.34821187199534 -0.980000000000003 1.92504291883475
vertex 7.34821187199534 6.99 1.92504291883475
endloop
endfacet
facet normal -0.273780713098767 -4.06312510937354e-019 -0.961792140295984
outer loop
vertex 7.34821187199534 -0.980000000000003 1.92504291883475
vertex 7.64119369600046 6.99 1.83171266962039
vertex 7.64119369600046 -0.979999999999999 1.83171266962039
endloop
endfacet
facet normal -0.273780713098768 -4.06312510937355e-019 -0.961792140295984
outer loop
vertex 7.34821187199534 6.99 1.92504291883475
vertex 7.05 -0.98 2.0
vertex 7.05 6.99 2.0
endloop
endfacet
facet normal -0.243772359990416 -1.82102965584617e-020 -0.969832478577978
outer loop
vertex 7.05 -0.98 2.0
vertex 7.34821187199534 6.99 1.92504291883475
vertex 7.34821187199534 -0.980000000000003 1.92504291883475
endloop
endfacet
facet normal 0.243772359990405 0.0 -0.96983247857798
outer loop
vertex 7.05 6.99 2.0
vertex 6.75178812800465 -0.98 1.92504291883475
vertex 6.75178812800465 6.99 1.92504291883475
endloop
endfacet
facet normal 0.273780713098763 0.0 -0.961792140295986
outer loop
vertex 6.75178812800465 -0.98 1.92504291883475
vertex 7.05 6.99 2.0
vertex 7.05 -0.98 2.0
endloop
endfacet
facet normal 0.273780713098763 0.0 -0.961792140295986
outer loop
vertex 6.75178812800465 6.99 1.92504291883475
vertex 6.45880630399953 -0.98 1.83171266962039
vertex 6.45880630399953 6.99 1.83171266962039
endloop
endfacet
facet normal 0.332975994868279 0.0 -0.942935303635133
outer loop
vertex 6.45880630399953 -0.98 1.83171266962039
vertex 6.75178812800465 6.99 1.92504291883475
vertex 6.75178812800465 -0.98 1.92504291883475
endloop
endfacet
facet normal 0.332975994868279 0.0 -0.942935303635133
outer loop
vertex 6.45880630399953 6.99 1.83171266962039
vertex 6.17218533870152 -0.98 1.7203694755427
vertex 6.17218533870152 6.99 1.7203694755427
endloop
endfacet
facet normal 0.390886101952498 0.0 -0.920439055723072
outer loop
vertex 6.17218533870152 -0.98 1.7203694755427
vertex 6.45880630399953 6.99 1.83171266962039
vertex 6.45880630399953 -0.98 1.83171266962039
endloop
endfacet
facet normal 0.390886101952498 0.0 -0.920439055723072
outer loop
vertex 6.17218533870152 6.99 1.7203694755427
vertex 5.89303149206496 -0.98 1.59144308366037
vertex 5.89303149206496 6.99 1.59144308366037
endloop
endfacet
facet normal 0.447287520930647 0.0 -0.89439022446565
outer loop
vertex 5.89303149206496 -0.98 1.59144308366037
vertex 6.17218533870152 6.99 1.7203694755427
vertex 6.17218533870152 -0.98 1.7203694755427
endloop
endfacet
facet normal 0.447287520930647 0.0 -0.89439022446565
outer loop
vertex 5.89303149206496 6.99 1.59144308366037
vertex 5.62242220349247 -0.98 1.44543110622675
vertex 5.62242220349247 6.99 1.44543110622675
endloop
endfacet
facet normal 0.501962561407619 0.0 -0.864889349538485
outer loop
vertex 5.62242220349247 -0.98 1.44543110622675
vertex 5.89303149206496 6.99 1.59144308366037
vertex 5.89303149206496 -0.98 1.59144308366037
endloop
endfacet
facet normal 0.501962561407619 0.0 -0.864889349538485
outer loop
vertex 5.62242220349247 6.99 1.44543110622675
vertex 5.36140193328342 -0.98 1.28289710007487
vertex 5.36140193328342 6.99 1.28289710007487
endloop
endfacet
facet normal 0.554700196225231 0.0 -0.832050294337843
outer loop
vertex 5.36140193328342 -0.98 1.28289710007487
vertex 5.62242220349247 6.99 1.44543110622675
vertex 5.62242220349247 -0.98 1.44543110622675
endloop
endfacet
facet normal 0.554700196225231 0.0 -0.832050294337843
outer loop
vertex 5.36140193328342 6.99 1.28289710007487
vertex 5.11097813137051 -0.98 1.10446839147877
vertex 5.11097813137051 6.99 1.10446839147877
endloop
endfacet
facet normal 0.605296875955671 0.0 -0.795999806506449
outer loop
vertex 5.11097813137051 -0.98 1.10446839147877
vertex 5.36140193328342 6.99 1.28289710007487
vertex 5.36140193328342 -0.98 1.28289710007487
endloop
endfacet
facet normal 0.605296875955671 0.0 -0.795999806506449
outer loop
vertex 5.11097813137051 6.99 1.10446839147877
vertex 4.8721173489039 -0.98 0.910833654886337
vertex 4.8721173489039 6.99 0.910833654886337
endloop
endfacet
facet normal 0.653557314533427 3.57208487452245e-017 -0.756877028730464
outer loop
vertex 4.8721173489039 -0.98 0.910833654886337
vertex 5.11097813137051 6.99 1.10446839147877
vertex 5.11097813137051 -0.98 1.10446839147877
endloop
endfacet
facet normal 0.653557314533427 3.57208487452245e-017 -0.756877028730464
outer loop
vertex 4.8721173489039 6.99 0.910833654886337
vertex 4.64574150769077 -0.98 0.702740254868868
vertex 4.64574150769077 6.99 0.702740254868869
endloop
endfacet
facet normal 0.699295242993414 1.02546543007577e-016 -0.714832961695795
outer loop
vertex 4.64574150769077 -0.98 0.702740254868868
vertex 4.8721173489039 6.99 0.910833654886337
vertex 4.8721173489039 -0.98 0.910833654886337
endloop
endfacet
facet normal 0.742334128406169 1.23599983057157e-016 -0.67002988127654
outer loop
vertex 4.43272434188905 6.99 0.480991361546742
vertex 4.64574150769077 -0.98 0.702740254868868
vertex 4.43272434188905 -0.98 0.48099136154674
endloop
endfacet
facet normal 0.699295242993414 1.02546543007577e-016 -0.714832961695795
outer loop
vertex 4.64574150769077 -0.98 0.702740254868868
vertex 4.43272434188905 6.99 0.480991361546742
vertex 4.64574150769077 6.99 0.702740254868869
endloop
endfacet
facet normal 0.782507855235231 1.168799119979e-016 -0.622640712205007
outer loop
vertex 4.23388802568921 6.99 0.24644285062446
vertex 4.43272434188905 -0.98 0.48099136154674
vertex 4.23388802568921 -0.98 0.246442850624458
endloop
endfacet
facet normal 0.742334128406169 1.23599983057157e-016 -0.67002988127654
outer loop
vertex 4.43272434188905 -0.98 0.48099136154674
vertex 4.23388802568921 6.99 0.24644285062446
vertex 4.43272434188905 6.99 0.480991361546742
endloop
endfacet
facet normal 0.801471380229518 1.20153235566378e-016 -0.598033131751905
outer loop
vertex 4.05 6.99 1.93967460259456e-015
vertex 4.23388802568921 -0.98 0.246442850624458
vertex 4.05 -0.98 1.6029653594091e-031
endloop
endfacet
facet normal 0.782507855235231 1.168799119979e-016 -0.622640712205007
outer loop
vertex 4.23388802568921 -0.98 0.246442850624458
vertex 4.05 6.99 1.93967460259456e-015
vertex 4.23388802568921 6.99 0.24644285062446
endloop
endfacet
endsolid bump
