solid Diag_duct
facet normal 0.0 0.257662650560332 -0.966234939601247
outer loop
vertex 3.0 3.0 2.02704205765991
vertex 0.0 0.0 1.22704205765991
vertex 0.0 3.0 2.02704205765991
endloop
endfacet
facet normal 0.0 0.257662650560332 -0.966234939601247
outer loop
vertex 0.0 0.0 1.22704205765991
vertex 3.0 3.0 2.02704205765991
vertex 3.0 0.0 1.22704205765991
endloop
endfacet
facet normal -0.0 -0.257662650560332 0.966234939601246
outer loop
vertex 3.0 0.0 0.05
vertex 0.0 3.0 0.85
vertex 0.0 0.0 0.05
endloop
endfacet
facet normal -0.0 -0.257662650560332 0.966234939601246
outer loop
vertex 0.0 3.0 0.85
vertex 3.0 0.0 0.05
vertex 3.0 3.0 0.85
endloop
endfacet
facet normal 0.0 0.0 -1.0
outer loop
vertex 3.0 5.2 2.02704205765991
vertex 0.0 3.0 2.02704205765991
vertex 0.0 5.2 2.02704205765991
endloop
endfacet
facet normal 0.0 0.0 -1.0
outer loop
vertex 0.0 3.0 2.02704205765991
vertex 3.0 5.2 2.02704205765991
vertex 3.0 3.0 2.02704205765991
endloop
endfacet
facet normal -0.0 -0.0 1.0
outer loop
vertex 3.0 3.0 0.85
vertex 0.0 5.2 0.85
vertex 0.0 3.0 0.85
endloop
endfacet
facet normal -0.0 -0.0 1.0
outer loop
vertex 0.0 5.2 0.85
vertex 3.0 3.0 0.85
vertex 3.0 5.2 0.85
endloop
endfacet
endsolid Diag_duct
