solid model
facet normal -0.0 -0.0 1.0
outer loop
vertex 4.0 -3.60955709766131e-16 1.0
vertex 2.0 0.33 1.0
vertex 1.0 0.0 1.0
endloop
endfacet
facet normal -0.313377454203902 0.949628649102733 -0.0
outer loop
vertex 1.0 0.0 1.0
vertex 2.0 0.33 0.0
vertex 1.0 0.0 0.0
endloop
endfacet
facet normal -0.313377454203902 0.949628649102733 -0.0
outer loop
vertex 2.0 0.33 0.0
vertex 1.0 0.0 1.0
vertex 2.0 0.33 1.0
endloop
endfacet
facet normal -0.0 -0.0 1.0
outer loop
vertex 2.0 0.83 1.0
vertex 1.0 1.2 1.0
vertex 1.0 1.16 1.0
endloop
endfacet
facet normal -0.0 -0.0 1.0
outer loop
vertex 1.0 1.2 1.0
vertex 2.0 0.83 1.0
vertex 4.0 1.2 1.0
endloop
endfacet
facet normal -0.0 -0.0 1.0
outer loop
vertex 4.0 1.2 1.0
vertex 2.0 0.83 1.0
vertex 4.0 1.16 1.0
endloop
endfacet
facet normal -1.0 -3.00796424805109e-16 0.0
outer loop
vertex 1.0 1.2 1.0
vertex 1.0 1.16 0.0
vertex 1.0 1.16 1.0
endloop
endfacet
facet normal -1.0 -3.00796424805109e-16 0.0
outer loop
vertex 1.0 1.16 0.0
vertex 1.0 1.2 1.0
vertex 1.0 1.2 0.0
endloop
endfacet
facet normal 0.0 0.0 -1.0
outer loop
vertex 4.0 -3.60955709766131e-16 0.0
vertex 1.0 0.0 0.0
vertex 2.0 0.33 0.0
endloop
endfacet
facet normal -3.00796424805109e-16 1.0 0.0
outer loop
vertex 1.0 1.2 1.0
vertex 4.0 1.2 0.0
vertex 1.0 1.2 0.0
endloop
endfacet
facet normal -3.00796424805109e-16 1.0 0.0
outer loop
vertex 4.0 1.2 0.0
vertex 1.0 1.2 1.0
vertex 4.0 1.2 1.0
endloop
endfacet
facet normal -0.313377454203902 -0.949628649102733 0.0
outer loop
vertex 2.0 0.83 1.0
vertex 1.0 1.16 0.0
vertex 2.0 0.83 0.0
endloop
endfacet
facet normal -0.313377454203902 -0.949628649102733 0.0
outer loop
vertex 1.0 1.16 0.0
vertex 2.0 0.83 1.0
vertex 1.0 1.16 1.0
endloop
endfacet
facet normal 0.0 0.0 -1.0
outer loop
vertex 4.0 1.2 0.0
vertex 1.0 1.16 0.0
vertex 1.0 1.2 0.0
endloop
endfacet
facet normal 0.0 0.0 -1.0
outer loop
vertex 1.0 1.16 0.0
vertex 4.0 1.2 0.0
vertex 2.0 0.83 0.0
endloop
endfacet
facet normal 0.0 0.0 -1.0
outer loop
vertex 2.0 0.83 0.0
vertex 4.0 1.2 0.0
vertex 4.0 1.16 0.0
endloop
endfacet
facet normal -1.20318569922044e-16 -1.0 0.0
outer loop
vertex 4.0 -3.60955709766131e-16 1.0
vertex 1.0 0.0 0.0
vertex 4.0 -3.60955709766131e-16 0.0
endloop
endfacet
facet normal -1.20318569922044e-16 -1.0 0.0
outer loop
vertex 1.0 0.0 0.0
vertex 4.0 -3.60955709766131e-16 1.0
vertex 1.0 0.0 1.0
endloop
endfacet
facet normal 0.162798782993203 0.986659290867892 -0.0
outer loop
vertex 2.0 0.33 1.0
vertex 4.0 -3.60955709766131e-16 0.0
vertex 2.0 0.33 0.0
endloop
endfacet
facet normal 0.162798782993203 0.986659290867892 -0.0
outer loop
vertex 4.0 -3.60955709766131e-16 0.0
vertex 2.0 0.33 1.0
vertex 4.0 -3.60955709766131e-16 1.0
endloop
endfacet
facet normal 0.162798782993202 -0.986659290867892 0.0
outer loop
vertex 4.0 1.16 1.0
vertex 2.0 0.83 0.0
vertex 4.0 1.16 0.0
endloop
endfacet
facet normal 0.162798782993202 -0.986659290867892 0.0
outer loop
vertex 2.0 0.83 0.0
vertex 4.0 1.16 1.0
vertex 2.0 0.83 1.0
endloop
endfacet
facet normal 1.0 3.00796424805109e-16 0.0
outer loop
vertex 4.0 1.2 0.0
vertex 4.0 1.16 1.0
vertex 4.0 1.16 0.0
endloop
endfacet
facet normal 1.0 3.00796424805109e-16 0.0
outer loop
vertex 4.0 1.16 1.0
vertex 4.0 1.2 0.0
vertex 4.0 1.2 1.0
endloop
endfacet
endsolid model
