solid Simple Intake
facet normal 0.0 0.0 -1.0
outer loop
vertex 7.22725933896874 3.20705523608202 0.5
vertex 7.22725933896874 2.79294476391798 0.5
vertex 7.2 3.0 0.5
endloop
endfacet
facet normal 0.0 0.0 -1.0
outer loop
vertex 7.22725933896874 2.79294476391798 0.5
vertex 7.22725933896874 3.20705523608202 0.5
vertex 7.30717967697245 3.4 0.5
endloop
endfacet
facet normal 0.0 0.0 -1.0
outer loop
vertex 7.22725933896874 2.79294476391798 0.5
vertex 7.30717967697245 3.4 0.5
vertex 7.30717967697245 2.6 0.5
endloop
endfacet
facet normal 0.0 0.0 -1.0
outer loop
vertex 7.30717967697245 2.6 0.5
vertex 7.30717967697245 3.4 0.5
vertex 7.43431457505076 3.56568542494924 0.5
endloop
endfacet
facet normal 0.0 0.0 -1.0
outer loop
vertex 7.30717967697245 2.6 0.5
vertex 7.43431457505076 3.56568542494924 0.5
vertex 7.43431457505076 2.43431457505076 0.5
endloop
endfacet
facet normal 0.0 0.0 -1.0
outer loop
vertex 7.43431457505076 2.43431457505076 0.5
vertex 7.43431457505076 3.56568542494924 0.5
vertex 7.5 3.0 0.5
endloop
endfacet
facet normal 0.0 0.0 -1.0
outer loop
vertex 7.5 3.0 0.5
vertex 7.43431457505076 3.56568542494924 0.5
vertex 7.51703708685546 3.12940952255126 0.5
endloop
endfacet
facet normal 0.0 0.0 -1.0
outer loop
vertex 7.51703708685546 3.12940952255126 0.5
vertex 7.43431457505076 3.56568542494924 0.5
vertex 7.6 3.69282032302755 0.5
endloop
endfacet
facet normal 0.0 0.0 -1.0
outer loop
vertex 7.51703708685546 3.12940952255126 0.5
vertex 7.6 3.69282032302755 0.5
vertex 7.56698729810778 3.25 0.5
endloop
endfacet
facet normal 0.0 0.0 -1.0
outer loop
vertex 7.56698729810778 3.25 0.5
vertex 7.6 3.69282032302755 0.5
vertex 7.64644660940673 3.35355339059327 0.5
endloop
endfacet
facet normal 0.0 0.0 -1.0
outer loop
vertex 7.64644660940673 3.35355339059327 0.5
vertex 7.6 3.69282032302755 0.5
vertex 7.79294476391798 3.77274066103126 0.5
endloop
endfacet
facet normal 0.0 0.0 -1.0
outer loop
vertex 7.64644660940673 3.35355339059327 0.5
vertex 7.79294476391798 3.77274066103126 0.5
vertex 7.75 3.43301270189222 0.5
endloop
endfacet
facet normal 0.0 0.0 -1.0
outer loop
vertex 7.75 3.43301270189222 0.5
vertex 7.79294476391798 3.77274066103126 0.5
vertex 7.87059047744874 3.48296291314453 0.5
endloop
endfacet
facet normal 0.0 0.0 -1.0
outer loop
vertex 7.87059047744874 3.48296291314453 0.5
vertex 7.79294476391798 3.77274066103126 0.5
vertex 8.0 3.8 0.5
endloop
endfacet
facet normal 0.0 0.0 -1.0
outer loop
vertex 7.87059047744874 3.48296291314453 0.5
vertex 8.0 3.8 0.5
vertex 8.0 3.5 0.5
endloop
endfacet
facet normal 0.0 0.0 -1.0
outer loop
vertex 8.0 3.5 0.5
vertex 8.0 3.8 0.5
vertex 8.20705523608201 3.77274066103126 0.5
endloop
endfacet
facet normal 0.0 0.0 -1.0
outer loop
vertex 8.0 3.5 0.5
vertex 8.20705523608201 3.77274066103126 0.5
vertex 8.12940952255126 3.48296291314453 0.5
endloop
endfacet
facet normal 0.0 0.0 -1.0
outer loop
vertex 8.12940952255126 3.48296291314453 0.5
vertex 8.20705523608201 3.77274066103126 0.5
vertex 8.25 3.43301270189222 0.5
endloop
endfacet
facet normal 0.0 0.0 -1.0
outer loop
vertex 8.25 3.43301270189222 0.5
vertex 8.20705523608201 3.77274066103126 0.5
vertex 8.4 3.69282032302755 0.5
endloop
endfacet
facet normal 0.0 0.0 -1.0
outer loop
vertex 8.25 3.43301270189222 0.5
vertex 8.4 3.69282032302755 0.5
vertex 8.35355339059327 3.35355339059327 0.5
endloop
endfacet
facet normal 0.0 0.0 -1.0
outer loop
vertex 8.35355339059327 3.35355339059327 0.5
vertex 8.4 3.69282032302755 0.5
vertex 8.43301270189222 3.25 0.5
endloop
endfacet
facet normal 0.0 0.0 -1.0
outer loop
vertex 8.43301270189222 3.25 0.5
vertex 8.4 3.69282032302755 0.5
vertex 8.56568542494924 3.56568542494924 0.5
endloop
endfacet
facet normal 0.0 0.0 -1.0
outer loop
vertex 8.43301270189222 3.25 0.5
vertex 8.56568542494924 3.56568542494924 0.5
vertex 8.48296291314453 3.12940952255126 0.5
endloop
endfacet
facet normal 0.0 0.0 -1.0
outer loop
vertex 8.48296291314453 3.12940952255126 0.5
vertex 8.56568542494924 3.56568542494924 0.5
vertex 8.5 3.0 0.5
endloop
endfacet
facet normal 0.0 0.0 -1.0
outer loop
vertex 7.43431457505076 2.43431457505076 0.5
vertex 7.51703708685546 2.87059047744874 0.5
vertex 7.6 2.30717967697245 0.5
endloop
endfacet
facet normal 0.0 0.0 -1.0
outer loop
vertex 7.51703708685546 2.87059047744874 0.5
vertex 7.43431457505076 2.43431457505076 0.5
vertex 7.5 3.0 0.5
endloop
endfacet
facet normal 0.0 0.0 -1.0
outer loop
vertex 7.6 2.30717967697245 0.5
vertex 7.51703708685546 2.87059047744874 0.5
vertex 7.56698729810778 2.75 0.5
endloop
endfacet
facet normal 0.0 0.0 -1.0
outer loop
vertex 7.6 2.30717967697245 0.5
vertex 7.56698729810778 2.75 0.5
vertex 7.64644660940673 2.64644660940673 0.5
endloop
endfacet
facet normal 0.0 0.0 -1.0
outer loop
vertex 7.6 2.30717967697245 0.5
vertex 7.64644660940673 2.64644660940673 0.5
vertex 7.79294476391798 2.22725933896874 0.5
endloop
endfacet
facet normal 0.0 0.0 -1.0
outer loop
vertex 7.79294476391798 2.22725933896874 0.5
vertex 7.64644660940673 2.64644660940673 0.5
vertex 7.75 2.56698729810778 0.5
endloop
endfacet
facet normal 0.0 0.0 -1.0
outer loop
vertex 7.79294476391798 2.22725933896874 0.5
vertex 7.75 2.56698729810778 0.5
vertex 7.87059047744874 2.51703708685547 0.5
endloop
endfacet
facet normal 0.0 0.0 -1.0
outer loop
vertex 7.79294476391798 2.22725933896874 0.5
vertex 7.87059047744874 2.51703708685547 0.5
vertex 8.0 2.2 0.5
endloop
endfacet
facet normal 0.0 0.0 -1.0
outer loop
vertex 8.0 2.2 0.5
vertex 7.87059047744874 2.51703708685547 0.5
vertex 8.0 2.5 0.5
endloop
endfacet
facet normal 0.0 0.0 -1.0
outer loop
vertex 8.0 2.2 0.5
vertex 8.0 2.5 0.5
vertex 8.12940952255126 2.51703708685547 0.5
endloop
endfacet
facet normal 0.0 0.0 -1.0
outer loop
vertex 8.0 2.2 0.5
vertex 8.12940952255126 2.51703708685547 0.5
vertex 8.20705523608201 2.22725933896874 0.5
endloop
endfacet
facet normal 0.0 0.0 -1.0
outer loop
vertex 8.20705523608201 2.22725933896874 0.5
vertex 8.12940952255126 2.51703708685547 0.5
vertex 8.25 2.56698729810778 0.5
endloop
endfacet
facet normal 0.0 0.0 -1.0
outer loop
vertex 8.20705523608201 2.22725933896874 0.5
vertex 8.25 2.56698729810778 0.5
vertex 8.4 2.30717967697245 0.5
endloop
endfacet
facet normal 0.0 0.0 -1.0
outer loop
vertex 8.4 2.30717967697245 0.5
vertex 8.25 2.56698729810778 0.5
vertex 8.35355339059327 2.64644660940673 0.5
endloop
endfacet
facet normal 0.0 0.0 -1.0
outer loop
vertex 8.4 2.30717967697245 0.5
vertex 8.35355339059327 2.64644660940673 0.5
vertex 8.43301270189222 2.75 0.5
endloop
endfacet
facet normal 0.0 0.0 -1.0
outer loop
vertex 8.4 2.30717967697245 0.5
vertex 8.43301270189222 2.75 0.5
vertex 8.56568542494924 2.43431457505076 0.5
endloop
endfacet
facet normal 0.0 0.0 -1.0
outer loop
vertex 8.56568542494924 2.43431457505076 0.5
vertex 8.43301270189222 2.75 0.5
vertex 8.48296291314453 2.87059047744874 0.5
endloop
endfacet
facet normal 0.0 0.0 -1.0
outer loop
vertex 8.56568542494924 2.43431457505076 0.5
vertex 8.48296291314453 2.87059047744874 0.5
vertex 8.5 3.0 0.5
endloop
endfacet
facet normal 0.0 0.0 -1.0
outer loop
vertex 8.56568542494924 2.43431457505076 0.5
vertex 8.5 3.0 0.5
vertex 8.56568542494924 3.56568542494924 0.5
endloop
endfacet
facet normal 0.0 0.0 -1.0
outer loop
vertex 8.56568542494924 2.43431457505076 0.5
vertex 8.56568542494924 3.56568542494924 0.5
vertex 8.69282032302755 3.4 0.5
endloop
endfacet
facet normal 0.0 0.0 -1.0
outer loop
vertex 8.56568542494924 2.43431457505076 0.5
vertex 8.69282032302755 3.4 0.5
vertex 8.69282032302755 2.6 0.5
endloop
endfacet
facet normal 0.0 0.0 -1.0
outer loop
vertex 8.69282032302755 2.6 0.5
vertex 8.69282032302755 3.4 0.5
vertex 8.77274066103125 3.20705523608202 0.5
endloop
endfacet
facet normal 0.0 0.0 -1.0
outer loop
vertex 8.69282032302755 2.6 0.5
vertex 8.77274066103125 3.20705523608202 0.5
vertex 8.77274066103125 2.79294476391798 0.5
endloop
endfacet
facet normal 0.0 0.0 -1.0
outer loop
vertex 8.77274066103125 2.79294476391798 0.5
vertex 8.77274066103125 3.20705523608202 0.5
vertex 8.8 3.0 0.5
endloop
endfacet
facet normal -0.0 -0.0 1.0
outer loop
vertex 7.22725933896874 2.79294476391798 4.5
vertex 7.22725933896874 3.20705523608202 4.5
vertex 7.2 3.0 4.5
endloop
endfacet
facet normal -0.0 -0.0 1.0
outer loop
vertex 7.22725933896874 3.20705523608202 4.5
vertex 7.22725933896874 2.79294476391798 4.5
vertex 7.30717967697245 2.6 4.5
endloop
endfacet
facet normal -0.0 -0.0 1.0
outer loop
vertex 7.22725933896874 3.20705523608202 4.5
vertex 7.30717967697245 2.6 4.5
vertex 7.30717967697245 3.4 4.5
endloop
endfacet
facet normal -0.0 -0.0 1.0
outer loop
vertex 7.30717967697245 3.4 4.5
vertex 7.30717967697245 2.6 4.5
vertex 7.43431457505076 2.43431457505076 4.5
endloop
endfacet
facet normal -0.0 -0.0 1.0
outer loop
vertex 7.30717967697245 3.4 4.5
vertex 7.43431457505076 2.43431457505076 4.5
vertex 7.43431457505076 3.56568542494924 4.5
endloop
endfacet
facet normal -0.0 -0.0 1.0
outer loop
vertex 7.43431457505076 3.56568542494924 4.5
vertex 7.43431457505076 2.43431457505076 4.5
vertex 7.5 3.0 4.5
endloop
endfacet
facet normal -0.0 -0.0 1.0
outer loop
vertex 7.5 3.0 4.5
vertex 7.43431457505076 2.43431457505076 4.5
vertex 7.51703708685546 2.87059047744874 4.5
endloop
endfacet
facet normal -0.0 -0.0 1.0
outer loop
vertex 7.51703708685546 2.87059047744874 4.5
vertex 7.43431457505076 2.43431457505076 4.5
vertex 7.6 2.30717967697245 4.5
endloop
endfacet
facet normal -0.0 -0.0 1.0
outer loop
vertex 7.51703708685546 2.87059047744874 4.5
vertex 7.6 2.30717967697245 4.5
vertex 7.56698729810778 2.75 4.5
endloop
endfacet
facet normal -0.0 -0.0 1.0
outer loop
vertex 7.56698729810778 2.75 4.5
vertex 7.6 2.30717967697245 4.5
vertex 7.64644660940673 2.64644660940673 4.5
endloop
endfacet
facet normal -0.0 -0.0 1.0
outer loop
vertex 7.64644660940673 2.64644660940673 4.5
vertex 7.6 2.30717967697245 4.5
vertex 7.79294476391798 2.22725933896874 4.5
endloop
endfacet
facet normal -0.0 -0.0 1.0
outer loop
vertex 7.64644660940673 2.64644660940673 4.5
vertex 7.79294476391798 2.22725933896874 4.5
vertex 7.75 2.56698729810778 4.5
endloop
endfacet
facet normal -0.0 -0.0 1.0
outer loop
vertex 7.75 2.56698729810778 4.5
vertex 7.79294476391798 2.22725933896874 4.5
vertex 7.87059047744874 2.51703708685547 4.5
endloop
endfacet
facet normal -0.0 -0.0 1.0
outer loop
vertex 7.87059047744874 2.51703708685547 4.5
vertex 7.79294476391798 2.22725933896874 4.5
vertex 8.0 2.2 4.5
endloop
endfacet
facet normal -0.0 -0.0 1.0
outer loop
vertex 7.87059047744874 2.51703708685547 4.5
vertex 8.0 2.2 4.5
vertex 8.0 2.5 4.5
endloop
endfacet
facet normal -0.0 -0.0 1.0
outer loop
vertex 8.0 2.5 4.5
vertex 8.0 2.2 4.5
vertex 8.20705523608201 2.22725933896874 4.5
endloop
endfacet
facet normal -0.0 -0.0 1.0
outer loop
vertex 8.0 2.5 4.5
vertex 8.20705523608201 2.22725933896874 4.5
vertex 8.12940952255126 2.51703708685547 4.5
endloop
endfacet
facet normal -0.0 -0.0 1.0
outer loop
vertex 8.12940952255126 2.51703708685547 4.5
vertex 8.20705523608201 2.22725933896874 4.5
vertex 8.25 2.56698729810778 4.5
endloop
endfacet
facet normal -0.0 -0.0 1.0
outer loop
vertex 8.25 2.56698729810778 4.5
vertex 8.20705523608201 2.22725933896874 4.5
vertex 8.4 2.30717967697245 4.5
endloop
endfacet
facet normal -0.0 -0.0 1.0
outer loop
vertex 8.25 2.56698729810778 4.5
vertex 8.4 2.30717967697245 4.5
vertex 8.35355339059327 2.64644660940673 4.5
endloop
endfacet
facet normal -0.0 -0.0 1.0
outer loop
vertex 8.35355339059327 2.64644660940673 4.5
vertex 8.4 2.30717967697245 4.5
vertex 8.43301270189222 2.75 4.5
endloop
endfacet
facet normal -0.0 -0.0 1.0
outer loop
vertex 8.43301270189222 2.75 4.5
vertex 8.4 2.30717967697245 4.5
vertex 8.56568542494924 2.43431457505076 4.5
endloop
endfacet
facet normal -0.0 -0.0 1.0
outer loop
vertex 8.43301270189222 2.75 4.5
vertex 8.56568542494924 2.43431457505076 4.5
vertex 8.48296291314453 2.87059047744874 4.5
endloop
endfacet
facet normal -0.0 -0.0 1.0
outer loop
vertex 8.48296291314453 2.87059047744874 4.5
vertex 8.56568542494924 2.43431457505076 4.5
vertex 8.5 3.0 4.5
endloop
endfacet
facet normal -0.0 -0.0 1.0
outer loop
vertex 7.43431457505076 3.56568542494924 4.5
vertex 7.51703708685546 3.12940952255126 4.5
vertex 7.6 3.69282032302755 4.5
endloop
endfacet
facet normal -0.0 -0.0 1.0
outer loop
vertex 7.51703708685546 3.12940952255126 4.5
vertex 7.43431457505076 3.56568542494924 4.5
vertex 7.5 3.0 4.5
endloop
endfacet
facet normal -0.0 -0.0 1.0
outer loop
vertex 7.6 3.69282032302755 4.5
vertex 7.51703708685546 3.12940952255126 4.5
vertex 7.56698729810778 3.25 4.5
endloop
endfacet
facet normal -0.0 -0.0 1.0
outer loop
vertex 7.6 3.69282032302755 4.5
vertex 7.56698729810778 3.25 4.5
vertex 7.64644660940673 3.35355339059327 4.5
endloop
endfacet
facet normal -0.0 -0.0 1.0
outer loop
vertex 7.6 3.69282032302755 4.5
vertex 7.64644660940673 3.35355339059327 4.5
vertex 7.79294476391798 3.77274066103126 4.5
endloop
endfacet
facet normal -0.0 -0.0 1.0
outer loop
vertex 7.79294476391798 3.77274066103126 4.5
vertex 7.64644660940673 3.35355339059327 4.5
vertex 7.75 3.43301270189222 4.5
endloop
endfacet
facet normal -0.0 -0.0 1.0
outer loop
vertex 7.79294476391798 3.77274066103126 4.5
vertex 7.75 3.43301270189222 4.5
vertex 7.87059047744874 3.48296291314453 4.5
endloop
endfacet
facet normal -0.0 -0.0 1.0
outer loop
vertex 7.79294476391798 3.77274066103126 4.5
vertex 7.87059047744874 3.48296291314453 4.5
vertex 8.0 3.8 4.5
endloop
endfacet
facet normal -0.0 -0.0 1.0
outer loop
vertex 8.0 3.8 4.5
vertex 7.87059047744874 3.48296291314453 4.5
vertex 8.0 3.5 4.5
endloop
endfacet
facet normal -0.0 -0.0 1.0
outer loop
vertex 8.0 3.8 4.5
vertex 8.0 3.5 4.5
vertex 8.12940952255126 3.48296291314453 4.5
endloop
endfacet
facet normal -0.0 -0.0 1.0
outer loop
vertex 8.0 3.8 4.5
vertex 8.12940952255126 3.48296291314453 4.5
vertex 8.20705523608201 3.77274066103126 4.5
endloop
endfacet
facet normal -0.0 -0.0 1.0
outer loop
vertex 8.20705523608201 3.77274066103126 4.5
vertex 8.12940952255126 3.48296291314453 4.5
vertex 8.25 3.43301270189222 4.5
endloop
endfacet
facet normal -0.0 -0.0 1.0
outer loop
vertex 8.20705523608201 3.77274066103126 4.5
vertex 8.25 3.43301270189222 4.5
vertex 8.4 3.69282032302755 4.5
endloop
endfacet
facet normal -0.0 -0.0 1.0
outer loop
vertex 8.4 3.69282032302755 4.5
vertex 8.25 3.43301270189222 4.5
vertex 8.35355339059327 3.35355339059327 4.5
endloop
endfacet
facet normal -0.0 -0.0 1.0
outer loop
vertex 8.4 3.69282032302755 4.5
vertex 8.35355339059327 3.35355339059327 4.5
vertex 8.43301270189222 3.25 4.5
endloop
endfacet
facet normal -0.0 -0.0 1.0
outer loop
vertex 8.4 3.69282032302755 4.5
vertex 8.43301270189222 3.25 4.5
vertex 8.56568542494924 3.56568542494924 4.5
endloop
endfacet
facet normal -0.0 -0.0 1.0
outer loop
vertex 8.56568542494924 3.56568542494924 4.5
vertex 8.43301270189222 3.25 4.5
vertex 8.48296291314453 3.12940952255126 4.5
endloop
endfacet
facet normal -0.0 -0.0 1.0
outer loop
vertex 8.56568542494924 3.56568542494924 4.5
vertex 8.48296291314453 3.12940952255126 4.5
vertex 8.5 3.0 4.5
endloop
endfacet
facet normal -0.0 -0.0 1.0
outer loop
vertex 8.56568542494924 3.56568542494924 4.5
vertex 8.5 3.0 4.5
vertex 8.56568542494924 2.43431457505076 4.5
endloop
endfacet
facet normal -0.0 -0.0 1.0
outer loop
vertex 8.56568542494924 3.56568542494924 4.5
vertex 8.56568542494924 2.43431457505076 4.5
vertex 8.69282032302755 2.6 4.5
endloop
endfacet
facet normal -0.0 -0.0 1.0
outer loop
vertex 8.56568542494924 3.56568542494924 4.5
vertex 8.69282032302755 2.6 4.5
vertex 8.69282032302755 3.4 4.5
endloop
endfacet
facet normal -0.0 -0.0 1.0
outer loop
vertex 8.69282032302755 3.4 4.5
vertex 8.69282032302755 2.6 4.5
vertex 8.77274066103125 3.20705523608202 4.5
endloop
endfacet
facet normal -0.0 -0.0 1.0
outer loop
vertex 8.77274066103125 3.20705523608202 4.5
vertex 8.69282032302755 2.6 4.5
vertex 8.77274066103125 2.79294476391798 4.5
endloop
endfacet
facet normal -0.0 -0.0 1.0
outer loop
vertex 8.77274066103125 3.20705523608202 4.5
vertex 8.77274066103125 2.79294476391798 4.5
vertex 8.8 3.0 4.5
endloop
endfacet
facet normal -0.258819045102519 -0.965925826289069 -8.43032022146307e-033
outer loop
vertex 7.79294476391798 2.22725933896874 4.5
vertex 7.6 2.30717967697245 0.5
vertex 7.79294476391798 2.22725933896874 0.5
endloop
endfacet
facet normal -0.500000000000002 -0.866025403784437 -6.2862107874423e-033
outer loop
vertex 7.6 2.30717967697245 0.5
vertex 7.79294476391798 2.22725933896874 4.5
vertex 7.6 2.30717967697245 4.5
endloop
endfacet
facet normal 4.72288824469286e-016 -1.0 -2.14410943402077e-033
outer loop
vertex 8.0 2.2 4.5
vertex 7.79294476391798 2.22725933896874 0.5
vertex 8.0 2.2 0.5
endloop
endfacet
facet normal -0.258819045102519 -0.965925826289069 -8.43032022146307e-033
outer loop
vertex 7.79294476391798 2.22725933896874 0.5
vertex 8.0 2.2 4.5
vertex 7.79294476391798 2.22725933896874 4.5
endloop
endfacet
facet normal 0.25881904510252 -0.965925826289069 6.2862107874423e-033
outer loop
vertex 8.20705523608201 2.22725933896874 4.5
vertex 8.0 2.2 0.5
vertex 8.20705523608201 2.22725933896874 0.5
endloop
endfacet
facet normal 4.72288824469286e-016 -1.0 -2.14410943402077e-033
outer loop
vertex 8.0 2.2 0.5
vertex 8.20705523608201 2.22725933896874 4.5
vertex 8.0 2.2 4.5
endloop
endfacet
facet normal 0.5 -0.866025403784438 -3.71370647671183e-033
outer loop
vertex 8.4 2.30717967697245 4.5
vertex 8.20705523608201 2.22725933896874 0.5
vertex 8.4 2.30717967697245 0.5
endloop
endfacet
facet normal 0.25881904510252 -0.965925826289069 6.2862107874423e-033
outer loop
vertex 8.20705523608201 2.22725933896874 0.5
vertex 8.4 2.30717967697245 4.5
vertex 8.20705523608201 2.22725933896874 4.5
endloop
endfacet
facet normal 0.707106781186548 -0.707106781186548 -9.99991726415412e-033
outer loop
vertex 8.56568542494924 2.43431457505076 4.5
vertex 8.4 2.30717967697245 0.5
vertex 8.56568542494924 2.43431457505076 0.5
endloop
endfacet
facet normal 0.5 -0.866025403784438 -3.71370647671183e-033
outer loop
vertex 8.4 2.30717967697245 0.5
vertex 8.56568542494924 2.43431457505076 4.5
vertex 8.4 2.30717967697245 4.5
endloop
endfacet
facet normal 0.866025403784439 -0.499999999999999 0.0
outer loop
vertex 8.69282032302755 2.6 0.5
vertex 8.56568542494924 2.43431457505076 4.5
vertex 8.56568542494924 2.43431457505076 0.5
endloop
endfacet
facet normal 0.707106781186548 -0.707106781186548 -9.99991726415412e-033
outer loop
vertex 8.56568542494924 2.43431457505076 4.5
vertex 8.69282032302755 2.6 0.5
vertex 8.69282032302755 2.6 4.5
endloop
endfacet
facet normal 0.965925826289068 -0.258819045102521 0.0
outer loop
vertex 8.77274066103125 2.79294476391798 0.5
vertex 8.69282032302755 2.6 4.5
vertex 8.69282032302755 2.6 0.5
endloop
endfacet
facet normal 0.866025403784439 -0.499999999999999 0.0
outer loop
vertex 8.69282032302755 2.6 4.5
vertex 8.77274066103125 2.79294476391798 0.5
vertex 8.77274066103125 2.79294476391798 4.5
endloop
endfacet
facet normal 1.0 0.0 0.0
outer loop
vertex 8.8 3.0 0.5
vertex 8.77274066103125 2.79294476391798 4.5
vertex 8.77274066103125 2.79294476391798 0.5
endloop
endfacet
facet normal 0.965925826289068 -0.258819045102521 0.0
outer loop
vertex 8.77274066103125 2.79294476391798 4.5
vertex 8.8 3.0 0.5
vertex 8.8 3.0 4.5
endloop
endfacet
facet normal 0.965925826289067 0.258819045102524 -1.51762553389792e-032
outer loop
vertex 8.77274066103125 3.20705523608202 0.5
vertex 8.8 3.0 4.5
vertex 8.8 3.0 0.5
endloop
endfacet
facet normal 1.0 0.0 0.0
outer loop
vertex 8.8 3.0 4.5
vertex 8.77274066103125 3.20705523608202 0.5
vertex 8.77274066103125 3.20705523608202 4.5
endloop
endfacet
facet normal 0.866025403784439 0.499999999999999 -2.82084012439377e-032
outer loop
vertex 8.69282032302755 3.4 0.5
vertex 8.77274066103125 3.20705523608202 4.5
vertex 8.77274066103125 3.20705523608202 0.5
endloop
endfacet
facet normal 0.965925826289067 0.258819045102524 -1.51762553389792e-032
outer loop
vertex 8.77274066103125 3.20705523608202 4.5
vertex 8.69282032302755 3.4 0.5
vertex 8.69282032302755 3.4 4.5
endloop
endfacet
facet normal 0.707106781186548 0.707106781186547 -1.30321459049585e-032
outer loop
vertex 8.56568542494924 3.56568542494924 0.5
vertex 8.69282032302755 3.4 4.5
vertex 8.69282032302755 3.4 0.5
endloop
endfacet
facet normal 0.866025403784439 0.499999999999999 -2.82084012439377e-032
outer loop
vertex 8.69282032302755 3.4 4.5
vertex 8.56568542494924 3.56568542494924 0.5
vertex 8.56568542494924 3.56568542494924 4.5
endloop
endfacet
facet normal 0.5 0.866025403784439 0.0
outer loop
vertex 8.4 3.69282032302755 4.5
vertex 8.56568542494924 3.56568542494924 0.5
vertex 8.4 3.69282032302755 0.5
endloop
endfacet
facet normal 0.707106781186548 0.707106781186547 -1.30321459049585e-032
outer loop
vertex 8.56568542494924 3.56568542494924 0.5
vertex 8.4 3.69282032302755 4.5
vertex 8.56568542494924 3.56568542494924 4.5
endloop
endfacet
facet normal 0.258819045102521 0.965925826289068 0.0
outer loop
vertex 8.20705523608201 3.77274066103126 4.5
vertex 8.4 3.69282032302755 0.5
vertex 8.20705523608201 3.77274066103126 0.5
endloop
endfacet
facet normal 0.5 0.866025403784439 0.0
outer loop
vertex 8.4 3.69282032302755 0.5
vertex 8.20705523608201 3.77274066103126 4.5
vertex 8.4 3.69282032302755 4.5
endloop
endfacet
facet normal 8.9111098956469e-016 1.0 0.0
outer loop
vertex 8.0 3.8 4.5
vertex 8.20705523608201 3.77274066103126 0.5
vertex 8.0 3.8 0.5
endloop
endfacet
facet normal 0.258819045102521 0.965925826289068 0.0
outer loop
vertex 8.20705523608201 3.77274066103126 0.5
vertex 8.0 3.8 4.5
vertex 8.20705523608201 3.77274066103126 4.5
endloop
endfacet
facet normal -0.25881904510252 0.965925826289068 0.0
outer loop
vertex 7.79294476391798 3.77274066103126 4.5
vertex 8.0 3.8 0.5
vertex 7.79294476391798 3.77274066103126 0.5
endloop
endfacet
facet normal 8.9111098956469e-016 1.0 0.0
outer loop
vertex 8.0 3.8 0.5
vertex 7.79294476391798 3.77274066103126 4.5
vertex 8.0 3.8 4.5
endloop
endfacet
facet normal -0.500000000000003 0.866025403784437 0.0
outer loop
vertex 7.6 3.69282032302755 4.5
vertex 7.79294476391798 3.77274066103126 0.5
vertex 7.6 3.69282032302755 0.5
endloop
endfacet
facet normal -0.25881904510252 0.965925826289068 0.0
outer loop
vertex 7.79294476391798 3.77274066103126 0.5
vertex 7.6 3.69282032302755 4.5
vertex 7.79294476391798 3.77274066103126 4.5
endloop
endfacet
facet normal -0.707106781186549 0.707106781186546 0.0
outer loop
vertex 7.43431457505076 3.56568542494924 4.5
vertex 7.6 3.69282032302755 0.5
vertex 7.43431457505076 3.56568542494924 0.5
endloop
endfacet
facet normal -0.500000000000003 0.866025403784437 0.0
outer loop
vertex 7.6 3.69282032302755 0.5
vertex 7.43431457505076 3.56568542494924 4.5
vertex 7.6 3.69282032302755 4.5
endloop
endfacet
facet normal -0.707106781186549 0.707106781186546 0.0
outer loop
vertex 7.43431457505076 3.56568542494924 4.5
vertex 7.30717967697245 3.4 0.5
vertex 7.30717967697245 3.4 4.5
endloop
endfacet
facet normal -0.866025403784438 0.5 1.51762553389793e-032
outer loop
vertex 7.30717967697245 3.4 0.5
vertex 7.43431457505076 3.56568542494924 4.5
vertex 7.43431457505076 3.56568542494924 0.5
endloop
endfacet
facet normal -0.866025403784438 0.5 1.51762553389793e-032
outer loop
vertex 7.30717967697245 3.4 4.5
vertex 7.22725933896874 3.20705523608202 0.5
vertex 7.22725933896874 3.20705523608202 4.5
endloop
endfacet
facet normal -0.965925826289069 0.25881904510252 -1.10987271261715e-033
outer loop
vertex 7.22725933896874 3.20705523608202 0.5
vertex 7.30717967697245 3.4 4.5
vertex 7.30717967697245 3.4 0.5
endloop
endfacet
facet normal -0.965925826289069 0.25881904510252 -1.10987271261715e-033
outer loop
vertex 7.22725933896874 3.20705523608202 4.5
vertex 7.2 3.0 0.5
vertex 7.2 3.0 4.5
endloop
endfacet
facet normal -1.0 4.72288824469286e-016 -3.25722561031928e-032
outer loop
vertex 7.2 3.0 0.5
vertex 7.22725933896874 3.20705523608202 4.5
vertex 7.22725933896874 3.20705523608202 0.5
endloop
endfacet
facet normal -1.0 4.72288824469286e-016 -3.25722561031928e-032
outer loop
vertex 7.2 3.0 4.5
vertex 7.22725933896874 2.79294476391798 0.5
vertex 7.22725933896874 2.79294476391798 4.5
endloop
endfacet
facet normal -0.965925826289068 -0.25881904510252 -1.10987271261717e-033
outer loop
vertex 7.22725933896874 2.79294476391798 0.5
vertex 7.2 3.0 4.5
vertex 7.2 3.0 0.5
endloop
endfacet
facet normal -0.965925826289068 -0.25881904510252 -1.10987271261717e-033
outer loop
vertex 7.22725933896874 2.79294476391798 4.5
vertex 7.30717967697245 2.6 0.5
vertex 7.30717967697245 2.6 4.5
endloop
endfacet
facet normal -0.866025403784438 -0.500000000000001 1.51762553389792e-032
outer loop
vertex 7.30717967697245 2.6 0.5
vertex 7.22725933896874 2.79294476391798 4.5
vertex 7.22725933896874 2.79294476391798 0.5
endloop
endfacet
facet normal -0.866025403784438 -0.500000000000001 1.51762553389792e-032
outer loop
vertex 7.30717967697245 2.6 4.5
vertex 7.43431457505076 2.43431457505076 0.5
vertex 7.43431457505076 2.43431457505076 4.5
endloop
endfacet
facet normal -0.707106781186549 -0.707106781186546 0.0
outer loop
vertex 7.43431457505076 2.43431457505076 0.5
vertex 7.30717967697245 2.6 4.5
vertex 7.30717967697245 2.6 0.5
endloop
endfacet
facet normal -0.500000000000002 -0.866025403784437 -6.2862107874423e-033
outer loop
vertex 7.6 2.30717967697245 4.5
vertex 7.43431457505076 2.43431457505076 0.5
vertex 7.6 2.30717967697245 0.5
endloop
endfacet
facet normal -0.707106781186549 -0.707106781186546 0.0
outer loop
vertex 7.43431457505076 2.43431457505076 0.5
vertex 7.6 2.30717967697245 4.5
vertex 7.43431457505076 2.43431457505076 4.5
endloop
endfacet
facet normal -0.866025403784438 -0.500000000000001 -2.82084012439377e-032
outer loop
vertex 8.43301270189222 3.25 4.5
vertex 8.48296291314453 3.12940952255126 0.5
vertex 8.48296291314453 3.12940952255126 4.5
endloop
endfacet
facet normal -0.965925826289069 -0.25881904510252 1.10987271261719e-033
outer loop
vertex 8.48296291314453 3.12940952255126 0.5
vertex 8.43301270189222 3.25 4.5
vertex 8.43301270189222 3.25 0.5
endloop
endfacet
facet normal -0.965925826289069 -0.25881904510252 1.10987271261719e-033
outer loop
vertex 8.48296291314453 3.12940952255126 4.5
vertex 8.5 3.0 0.5
vertex 8.5 3.0 4.5
endloop
endfacet
facet normal -1.0 0.0 3.25722561031928e-032
outer loop
vertex 8.5 3.0 0.5
vertex 8.48296291314453 3.12940952255126 4.5
vertex 8.48296291314453 3.12940952255126 0.5
endloop
endfacet
facet normal -1.0 0.0 3.25722561031928e-032
outer loop
vertex 8.5 3.0 4.5
vertex 8.48296291314453 2.87059047744874 0.5
vertex 8.48296291314453 2.87059047744874 4.5
endloop
endfacet
facet normal -0.965925826289069 0.25881904510252 1.10987271261719e-033
outer loop
vertex 8.48296291314453 2.87059047744874 0.5
vertex 8.5 3.0 4.5
vertex 8.5 3.0 0.5
endloop
endfacet
facet normal -0.965925826289069 0.25881904510252 1.10987271261719e-033
outer loop
vertex 8.48296291314453 2.87059047744874 4.5
vertex 8.43301270189222 2.75 0.5
vertex 8.43301270189222 2.75 4.5
endloop
endfacet
facet normal -0.866025403784438 0.500000000000001 -2.82084012439377e-032
outer loop
vertex 8.43301270189222 2.75 0.5
vertex 8.48296291314453 2.87059047744874 4.5
vertex 8.48296291314453 2.87059047744874 0.5
endloop
endfacet
facet normal -0.866025403784438 0.500000000000001 -2.82084012439377e-032
outer loop
vertex 8.43301270189222 2.75 4.5
vertex 8.35355339059327 2.64644660940673 0.5
vertex 8.35355339059327 2.64644660940673 4.5
endloop
endfacet
facet normal -0.707106781186547 0.707106781186547 -1.30321459049585e-032
outer loop
vertex 8.35355339059327 2.64644660940673 0.5
vertex 8.43301270189222 2.75 4.5
vertex 8.43301270189222 2.75 0.5
endloop
endfacet
facet normal -0.499999999999999 0.866025403784439 0.0
outer loop
vertex 8.25 2.56698729810778 4.5
vertex 8.35355339059327 2.64644660940673 0.5
vertex 8.25 2.56698729810778 0.5
endloop
endfacet
facet normal -0.707106781186547 0.707106781186547 -1.30321459049585e-032
outer loop
vertex 8.35355339059327 2.64644660940673 0.5
vertex 8.25 2.56698729810778 4.5
vertex 8.35355339059327 2.64644660940673 4.5
endloop
endfacet
facet normal -0.258819045102518 0.965925826289069 -2.14410943402073e-033
outer loop
vertex 8.12940952255126 2.51703708685547 4.5
vertex 8.25 2.56698729810778 0.5
vertex 8.12940952255126 2.51703708685547 0.5
endloop
endfacet
facet normal -0.499999999999999 0.866025403784439 0.0
outer loop
vertex 8.25 2.56698729810778 0.5
vertex 8.12940952255126 2.51703708685547 4.5
vertex 8.25 2.56698729810778 4.5
endloop
endfacet
facet normal -7.12888791651752e-016 1.0 -2.14410943402073e-033
outer loop
vertex 8.0 2.5 4.5
vertex 8.12940952255126 2.51703708685547 0.5
vertex 8.0 2.5 0.5
endloop
endfacet
facet normal -0.258819045102518 0.965925826289069 -2.14410943402073e-033
outer loop
vertex 8.12940952255126 2.51703708685547 0.5
vertex 8.0 2.5 4.5
vertex 8.12940952255126 2.51703708685547 4.5
endloop
endfacet
facet normal 0.258819045102518 0.965925826289069 0.0
outer loop
vertex 7.87059047744874 2.51703708685547 4.5
vertex 8.0 2.5 0.5
vertex 7.87059047744874 2.51703708685547 0.5
endloop
endfacet
facet normal -7.12888791651752e-016 1.0 -2.14410943402073e-033
outer loop
vertex 8.0 2.5 0.5
vertex 7.87059047744874 2.51703708685547 4.5
vertex 8.0 2.5 4.5
endloop
endfacet
facet normal 0.499999999999999 0.866025403784439 0.0
outer loop
vertex 7.75 2.56698729810778 4.5
vertex 7.87059047744874 2.51703708685547 0.5
vertex 7.75 2.56698729810778 0.5
endloop
endfacet
facet normal 0.258819045102518 0.965925826289069 0.0
outer loop
vertex 7.87059047744874 2.51703708685547 0.5
vertex 7.75 2.56698729810778 4.5
vertex 7.87059047744874 2.51703708685547 4.5
endloop
endfacet
facet normal 0.707106781186551 0.707106781186544 0.0
outer loop
vertex 7.64644660940673 2.64644660940673 4.5
vertex 7.75 2.56698729810778 0.5
vertex 7.64644660940673 2.64644660940673 0.5
endloop
endfacet
facet normal 0.499999999999999 0.866025403784439 0.0
outer loop
vertex 7.75 2.56698729810778 0.5
vertex 7.64644660940673 2.64644660940673 4.5
vertex 7.75 2.56698729810778 4.5
endloop
endfacet
facet normal 0.866025403784438 0.500000000000002 0.0
outer loop
vertex 7.56698729810778 2.75 0.5
vertex 7.64644660940673 2.64644660940673 4.5
vertex 7.64644660940673 2.64644660940673 0.5
endloop
endfacet
facet normal 0.707106781186551 0.707106781186544 0.0
outer loop
vertex 7.64644660940673 2.64644660940673 4.5
vertex 7.56698729810778 2.75 0.5
vertex 7.56698729810778 2.75 4.5
endloop
endfacet
facet normal 0.965925826289067 0.258819045102525 -1.62861280515965e-032
outer loop
vertex 7.51703708685546 2.87059047744874 0.5
vertex 7.56698729810778 2.75 4.5
vertex 7.56698729810778 2.75 0.5
endloop
endfacet
facet normal 0.866025403784438 0.500000000000002 0.0
outer loop
vertex 7.56698729810778 2.75 4.5
vertex 7.51703708685546 2.87059047744874 0.5
vertex 7.51703708685546 2.87059047744874 4.5
endloop
endfacet
facet normal 1.0 0.0 -3.25722561031928e-032
outer loop
vertex 7.5 3.0 0.5
vertex 7.51703708685546 2.87059047744874 4.5
vertex 7.51703708685546 2.87059047744874 0.5
endloop
endfacet
facet normal 0.965925826289067 0.258819045102525 -1.62861280515965e-032
outer loop
vertex 7.51703708685546 2.87059047744874 4.5
vertex 7.5 3.0 0.5
vertex 7.5 3.0 4.5
endloop
endfacet
facet normal 0.965925826289067 -0.258819045102525 -1.62861280515965e-032
outer loop
vertex 7.51703708685546 3.12940952255126 0.5
vertex 7.5 3.0 4.5
vertex 7.5 3.0 0.5
endloop
endfacet
facet normal 1.0 0.0 -3.25722561031928e-032
outer loop
vertex 7.5 3.0 4.5
vertex 7.51703708685546 3.12940952255126 0.5
vertex 7.51703708685546 3.12940952255126 4.5
endloop
endfacet
facet normal 0.866025403784438 -0.500000000000002 0.0
outer loop
vertex 7.56698729810778 3.25 0.5
vertex 7.51703708685546 3.12940952255126 4.5
vertex 7.51703708685546 3.12940952255126 0.5
endloop
endfacet
facet normal 0.965925826289067 -0.258819045102525 -1.62861280515965e-032
outer loop
vertex 7.51703708685546 3.12940952255126 4.5
vertex 7.56698729810778 3.25 0.5
vertex 7.56698729810778 3.25 4.5
endloop
endfacet
facet normal 0.707106781186551 -0.707106781186544 0.0
outer loop
vertex 7.64644660940673 3.35355339059327 0.5
vertex 7.56698729810778 3.25 4.5
vertex 7.56698729810778 3.25 0.5
endloop
endfacet
facet normal 0.866025403784438 -0.500000000000002 0.0
outer loop
vertex 7.56698729810778 3.25 4.5
vertex 7.64644660940673 3.35355339059327 0.5
vertex 7.64644660940673 3.35355339059327 4.5
endloop
endfacet
facet normal 0.499999999999999 -0.866025403784439 0.0
outer loop
vertex 7.75 3.43301270189222 4.5
vertex 7.64644660940673 3.35355339059327 0.5
vertex 7.75 3.43301270189222 0.5
endloop
endfacet
facet normal 0.707106781186551 -0.707106781186544 0.0
outer loop
vertex 7.64644660940673 3.35355339059327 0.5
vertex 7.75 3.43301270189222 4.5
vertex 7.64644660940673 3.35355339059327 4.5
endloop
endfacet
facet normal 0.258819045102518 -0.965925826289069 0.0
outer loop
vertex 7.87059047744874 3.48296291314453 4.5
vertex 7.75 3.43301270189222 0.5
vertex 7.87059047744874 3.48296291314453 0.5
endloop
endfacet
facet normal 0.499999999999999 -0.866025403784439 0.0
outer loop
vertex 7.75 3.43301270189222 0.5
vertex 7.87059047744874 3.48296291314453 4.5
vertex 7.75 3.43301270189222 4.5
endloop
endfacet
facet normal -7.30711011443046e-016 -1.0 -2.14410943402073e-033
outer loop
vertex 8.0 3.5 4.5
vertex 7.87059047744874 3.48296291314453 0.5
vertex 8.0 3.5 0.5
endloop
endfacet
facet normal 0.258819045102518 -0.965925826289069 0.0
outer loop
vertex 7.87059047744874 3.48296291314453 0.5
vertex 8.0 3.5 4.5
vertex 7.87059047744874 3.48296291314453 4.5
endloop
endfacet
facet normal -0.258819045102518 -0.965925826289069 -2.14410943402073e-033
outer loop
vertex 8.12940952255126 3.48296291314453 4.5
vertex 8.0 3.5 0.5
vertex 8.12940952255126 3.48296291314453 0.5
endloop
endfacet
facet normal -7.30711011443046e-016 -1.0 -2.14410943402073e-033
outer loop
vertex 8.0 3.5 0.5
vertex 8.12940952255126 3.48296291314453 4.5
vertex 8.0 3.5 4.5
endloop
endfacet
facet normal -0.499999999999999 -0.866025403784439 0.0
outer loop
vertex 8.25 3.43301270189222 4.5
vertex 8.12940952255126 3.48296291314453 0.5
vertex 8.25 3.43301270189222 0.5
endloop
endfacet
facet normal -0.258819045102518 -0.965925826289069 -2.14410943402073e-033
outer loop
vertex 8.12940952255126 3.48296291314453 0.5
vertex 8.25 3.43301270189222 4.5
vertex 8.12940952255126 3.48296291314453 4.5
endloop
endfacet
facet normal -0.707106781186547 -0.707106781186547 -1.30321459049585e-032
outer loop
vertex 8.35355339059327 3.35355339059327 4.5
vertex 8.25 3.43301270189222 0.5
vertex 8.35355339059327 3.35355339059327 0.5
endloop
endfacet
facet normal -0.499999999999999 -0.866025403784439 0.0
outer loop
vertex 8.25 3.43301270189222 0.5
vertex 8.35355339059327 3.35355339059327 4.5
vertex 8.25 3.43301270189222 4.5
endloop
endfacet
facet normal -0.707106781186547 -0.707106781186547 -1.30321459049585e-032
outer loop
vertex 8.35355339059327 3.35355339059327 4.5
vertex 8.43301270189222 3.25 0.5
vertex 8.43301270189222 3.25 4.5
endloop
endfacet
facet normal -0.866025403784438 -0.500000000000001 -2.82084012439377e-032
outer loop
vertex 8.43301270189222 3.25 0.5
vertex 8.35355339059327 3.35355339059327 4.5
vertex 8.35355339059327 3.35355339059327 0.5
endloop
endfacet
endsolid Simple Intake
